<mxfile host="app.diagrams.net" modified="2022-04-24T23:43:15.771Z" agent="5.0 (Windows NT 10.0; Win64; x64) AppleWebKit/537.36 (KHTML, like Gecko) Chrome/100.0.4896.127 Safari/537.36" etag="5SeYUWJgySmT-g2EBeWS" version="17.2.5" type="github">
  <diagram id="cvUZjCN3TQ3JwNbP6nGy" name="Page-1">
    <mxGraphModel dx="1117" dy="611" grid="1" gridSize="10" guides="1" tooltips="1" connect="1" arrows="1" fold="1" page="1" pageScale="1" pageWidth="827" pageHeight="1169" math="0" shadow="0">
      <root>
        <mxCell id="0" />
        <mxCell id="1" parent="0" />
        <mxCell id="9uPaZ5e8Ui4jW4CoOzcB-82" value="" style="group" vertex="1" connectable="0" parent="1">
          <mxGeometry x="80" y="40" width="260" height="164.44" as="geometry" />
        </mxCell>
        <mxCell id="9uPaZ5e8Ui4jW4CoOzcB-81" value="" style="rounded=0;whiteSpace=wrap;html=1;fillColor=none;strokeColor=#CCE5FF;strokeWidth=6;" vertex="1" parent="9uPaZ5e8Ui4jW4CoOzcB-82">
          <mxGeometry y="2.3982183681513587" width="260" height="162.04178163184866" as="geometry" />
        </mxCell>
        <mxCell id="9uPaZ5e8Ui4jW4CoOzcB-1" value="x1" style="ellipse;whiteSpace=wrap;html=1;aspect=fixed;" vertex="1" parent="9uPaZ5e8Ui4jW4CoOzcB-82">
          <mxGeometry x="5.909090909090908" y="67.21493102089082" width="21.57705429228608" height="21.57705429228608" as="geometry" />
        </mxCell>
        <mxCell id="9uPaZ5e8Ui4jW4CoOzcB-37" value="" style="endArrow=none;html=1;rounded=0;exitX=1;exitY=0.5;exitDx=0;exitDy=0;entryX=0;entryY=0.5;entryDx=0;entryDy=0;" edge="1" parent="9uPaZ5e8Ui4jW4CoOzcB-82" source="9uPaZ5e8Ui4jW4CoOzcB-1" target="9uPaZ5e8Ui4jW4CoOzcB-4">
          <mxGeometry width="50" height="50" relative="1" as="geometry">
            <mxPoint x="147.72727272727272" y="110.42607278938378" as="sourcePoint" />
            <mxPoint x="177.27272727272725" y="83.41910918407568" as="targetPoint" />
          </mxGeometry>
        </mxCell>
        <mxCell id="9uPaZ5e8Ui4jW4CoOzcB-38" value="" style="endArrow=none;html=1;rounded=0;exitX=1;exitY=0.5;exitDx=0;exitDy=0;entryX=0;entryY=0.5;entryDx=0;entryDy=0;" edge="1" parent="9uPaZ5e8Ui4jW4CoOzcB-82" source="9uPaZ5e8Ui4jW4CoOzcB-1" target="9uPaZ5e8Ui4jW4CoOzcB-8">
          <mxGeometry width="50" height="50" relative="1" as="geometry">
            <mxPoint x="147.72727272727272" y="110.42607278938378" as="sourcePoint" />
            <mxPoint x="177.27272727272725" y="83.41910918407568" as="targetPoint" />
          </mxGeometry>
        </mxCell>
        <mxCell id="9uPaZ5e8Ui4jW4CoOzcB-39" value="" style="endArrow=none;html=1;rounded=0;exitX=1;exitY=0.5;exitDx=0;exitDy=0;entryX=0;entryY=0.5;entryDx=0;entryDy=0;" edge="1" parent="9uPaZ5e8Ui4jW4CoOzcB-82" source="9uPaZ5e8Ui4jW4CoOzcB-1" target="9uPaZ5e8Ui4jW4CoOzcB-7">
          <mxGeometry width="50" height="50" relative="1" as="geometry">
            <mxPoint x="147.72727272727272" y="110.42607278938378" as="sourcePoint" />
            <mxPoint x="177.27272727272725" y="83.41910918407568" as="targetPoint" />
          </mxGeometry>
        </mxCell>
        <mxCell id="9uPaZ5e8Ui4jW4CoOzcB-40" value="" style="endArrow=none;html=1;rounded=0;exitX=1;exitY=0.5;exitDx=0;exitDy=0;entryX=0;entryY=0.5;entryDx=0;entryDy=0;" edge="1" parent="9uPaZ5e8Ui4jW4CoOzcB-82" source="9uPaZ5e8Ui4jW4CoOzcB-1" target="9uPaZ5e8Ui4jW4CoOzcB-6">
          <mxGeometry width="50" height="50" relative="1" as="geometry">
            <mxPoint x="147.72727272727272" y="110.42607278938378" as="sourcePoint" />
            <mxPoint x="177.27272727272725" y="83.41910918407568" as="targetPoint" />
          </mxGeometry>
        </mxCell>
        <mxCell id="9uPaZ5e8Ui4jW4CoOzcB-42" value="" style="group;flipH=0;direction=east;rotation=-180;" vertex="1" connectable="0" parent="9uPaZ5e8Ui4jW4CoOzcB-82">
          <mxGeometry x="170.77272727272725" width="76.81818181818181" height="151.2389961897254" as="geometry" />
        </mxCell>
        <mxCell id="9uPaZ5e8Ui4jW4CoOzcB-43" value="" style="group;rotation=-180;" vertex="1" connectable="0" parent="9uPaZ5e8Ui4jW4CoOzcB-42">
          <mxGeometry x="53.18181818181818" y="21.605570884246486" width="23.636363636363633" height="108.02785442123243" as="geometry" />
        </mxCell>
        <mxCell id="9uPaZ5e8Ui4jW4CoOzcB-44" value="" style="ellipse;whiteSpace=wrap;html=1;aspect=fixed;rotation=-180;" vertex="1" parent="9uPaZ5e8Ui4jW4CoOzcB-43">
          <mxGeometry x="6.5" y="92.36381553015373" width="15.412181637347201" height="15.412181637347201" as="geometry" />
        </mxCell>
        <mxCell id="9uPaZ5e8Ui4jW4CoOzcB-45" value="" style="ellipse;whiteSpace=wrap;html=1;aspect=fixed;rotation=-180;" vertex="1" parent="9uPaZ5e8Ui4jW4CoOzcB-43">
          <mxGeometry x="6.5" width="15.412181637347201" height="15.412181637347201" as="geometry" />
        </mxCell>
        <mxCell id="9uPaZ5e8Ui4jW4CoOzcB-46" value="" style="ellipse;whiteSpace=wrap;html=1;aspect=fixed;rotation=-180;" vertex="1" parent="9uPaZ5e8Ui4jW4CoOzcB-43">
          <mxGeometry x="6.5" y="30.78793851005124" width="15.412181637347201" height="15.412181637347201" as="geometry" />
        </mxCell>
        <mxCell id="9uPaZ5e8Ui4jW4CoOzcB-47" value="" style="ellipse;whiteSpace=wrap;html=1;aspect=fixed;rotation=-180;" vertex="1" parent="9uPaZ5e8Ui4jW4CoOzcB-43">
          <mxGeometry x="6.5" y="61.57587702010248" width="15.412181637347201" height="15.412181637347201" as="geometry" />
        </mxCell>
        <mxCell id="9uPaZ5e8Ui4jW4CoOzcB-48" value="" style="group;rotation=-180;" vertex="1" connectable="0" parent="9uPaZ5e8Ui4jW4CoOzcB-42">
          <mxGeometry width="23.636363636363633" height="151.2389961897254" as="geometry" />
        </mxCell>
        <mxCell id="9uPaZ5e8Ui4jW4CoOzcB-49" value="" style="ellipse;whiteSpace=wrap;html=1;aspect=fixed;rotation=-180;" vertex="1" parent="9uPaZ5e8Ui4jW4CoOzcB-48">
          <mxGeometry x="7.681818181818181" y="136.65523584285904" width="14.384702861524053" height="14.384702861524053" as="geometry" />
        </mxCell>
        <mxCell id="9uPaZ5e8Ui4jW4CoOzcB-50" value="" style="ellipse;whiteSpace=wrap;html=1;aspect=fixed;rotation=-180;" vertex="1" parent="9uPaZ5e8Ui4jW4CoOzcB-48">
          <mxGeometry x="7.681818181818181" y="36.18933123111286" width="14.384702861524053" height="14.384702861524053" as="geometry" />
        </mxCell>
        <mxCell id="9uPaZ5e8Ui4jW4CoOzcB-51" value="" style="ellipse;whiteSpace=wrap;html=1;aspect=fixed;rotation=-180;" vertex="1" parent="9uPaZ5e8Ui4jW4CoOzcB-48">
          <mxGeometry x="7.681818181818181" y="69.67796610169492" width="14.384702861524053" height="14.384702861524053" as="geometry" />
        </mxCell>
        <mxCell id="9uPaZ5e8Ui4jW4CoOzcB-52" value="" style="ellipse;whiteSpace=wrap;html=1;aspect=fixed;rotation=-180;" vertex="1" parent="9uPaZ5e8Ui4jW4CoOzcB-48">
          <mxGeometry x="7.681818181818181" y="103.16660097227697" width="14.384702861524053" height="14.384702861524053" as="geometry" />
        </mxCell>
        <mxCell id="9uPaZ5e8Ui4jW4CoOzcB-53" value="" style="ellipse;whiteSpace=wrap;html=1;aspect=fixed;rotation=-180;" vertex="1" parent="9uPaZ5e8Ui4jW4CoOzcB-48">
          <mxGeometry x="7.681818181818181" y="2.1605570884246488" width="14.384702861524053" height="14.384702861524053" as="geometry" />
        </mxCell>
        <mxCell id="9uPaZ5e8Ui4jW4CoOzcB-54" value="" style="endArrow=none;html=1;rounded=0;exitX=1;exitY=0.5;exitDx=0;exitDy=0;entryX=0;entryY=0.5;entryDx=0;entryDy=0;" edge="1" parent="9uPaZ5e8Ui4jW4CoOzcB-42" source="9uPaZ5e8Ui4jW4CoOzcB-44" target="9uPaZ5e8Ui4jW4CoOzcB-49">
          <mxGeometry width="50" height="50" relative="1" as="geometry">
            <mxPoint x="-11.818181818181817" y="43.21114176849297" as="sourcePoint" />
            <mxPoint x="-41.36363636363636" y="70.21810537380108" as="targetPoint" />
          </mxGeometry>
        </mxCell>
        <mxCell id="9uPaZ5e8Ui4jW4CoOzcB-55" value="" style="endArrow=none;html=1;rounded=0;exitX=1;exitY=0.5;exitDx=0;exitDy=0;entryX=0;entryY=0.5;entryDx=0;entryDy=0;" edge="1" parent="9uPaZ5e8Ui4jW4CoOzcB-42" source="9uPaZ5e8Ui4jW4CoOzcB-44" target="9uPaZ5e8Ui4jW4CoOzcB-52">
          <mxGeometry width="50" height="50" relative="1" as="geometry">
            <mxPoint x="-11.818181818181817" y="43.21114176849297" as="sourcePoint" />
            <mxPoint x="-41.36363636363636" y="70.21810537380108" as="targetPoint" />
          </mxGeometry>
        </mxCell>
        <mxCell id="9uPaZ5e8Ui4jW4CoOzcB-56" value="" style="endArrow=none;html=1;rounded=0;exitX=1;exitY=0.5;exitDx=0;exitDy=0;entryX=0;entryY=0.5;entryDx=0;entryDy=0;" edge="1" parent="9uPaZ5e8Ui4jW4CoOzcB-42" source="9uPaZ5e8Ui4jW4CoOzcB-44" target="9uPaZ5e8Ui4jW4CoOzcB-51">
          <mxGeometry width="50" height="50" relative="1" as="geometry">
            <mxPoint x="-11.818181818181817" y="43.21114176849297" as="sourcePoint" />
            <mxPoint x="-41.36363636363636" y="70.21810537380108" as="targetPoint" />
          </mxGeometry>
        </mxCell>
        <mxCell id="9uPaZ5e8Ui4jW4CoOzcB-57" value="" style="endArrow=none;html=1;rounded=0;exitX=1;exitY=0.5;exitDx=0;exitDy=0;entryX=0;entryY=0.5;entryDx=0;entryDy=0;" edge="1" parent="9uPaZ5e8Ui4jW4CoOzcB-42" source="9uPaZ5e8Ui4jW4CoOzcB-44" target="9uPaZ5e8Ui4jW4CoOzcB-50">
          <mxGeometry width="50" height="50" relative="1" as="geometry">
            <mxPoint x="-23.636363636363633" y="113.42924714229405" as="sourcePoint" />
            <mxPoint x="-53.18181818181818" y="140.43621074760216" as="targetPoint" />
          </mxGeometry>
        </mxCell>
        <mxCell id="9uPaZ5e8Ui4jW4CoOzcB-58" value="" style="endArrow=none;html=1;rounded=0;exitX=1;exitY=0.5;exitDx=0;exitDy=0;entryX=0;entryY=0.5;entryDx=0;entryDy=0;" edge="1" parent="9uPaZ5e8Ui4jW4CoOzcB-42" source="9uPaZ5e8Ui4jW4CoOzcB-44" target="9uPaZ5e8Ui4jW4CoOzcB-53">
          <mxGeometry width="50" height="50" relative="1" as="geometry">
            <mxPoint x="-11.818181818181817" y="43.21114176849297" as="sourcePoint" />
            <mxPoint x="-41.36363636363636" y="70.21810537380108" as="targetPoint" />
          </mxGeometry>
        </mxCell>
        <mxCell id="9uPaZ5e8Ui4jW4CoOzcB-59" value="" style="endArrow=none;html=1;rounded=0;exitX=1;exitY=0.5;exitDx=0;exitDy=0;entryX=0;entryY=0.5;entryDx=0;entryDy=0;" edge="1" parent="9uPaZ5e8Ui4jW4CoOzcB-42" source="9uPaZ5e8Ui4jW4CoOzcB-47" target="9uPaZ5e8Ui4jW4CoOzcB-49">
          <mxGeometry width="50" height="50" relative="1" as="geometry">
            <mxPoint x="-11.818181818181817" y="43.21114176849297" as="sourcePoint" />
            <mxPoint x="-41.36363636363636" y="70.21810537380108" as="targetPoint" />
          </mxGeometry>
        </mxCell>
        <mxCell id="9uPaZ5e8Ui4jW4CoOzcB-60" value="" style="endArrow=none;html=1;rounded=0;exitX=1;exitY=0.5;exitDx=0;exitDy=0;entryX=0;entryY=0.5;entryDx=0;entryDy=0;" edge="1" parent="9uPaZ5e8Ui4jW4CoOzcB-42" source="9uPaZ5e8Ui4jW4CoOzcB-47" target="9uPaZ5e8Ui4jW4CoOzcB-52">
          <mxGeometry width="50" height="50" relative="1" as="geometry">
            <mxPoint x="-11.818181818181817" y="43.21114176849297" as="sourcePoint" />
            <mxPoint x="-41.36363636363636" y="70.21810537380108" as="targetPoint" />
          </mxGeometry>
        </mxCell>
        <mxCell id="9uPaZ5e8Ui4jW4CoOzcB-61" value="" style="endArrow=none;html=1;rounded=0;exitX=1;exitY=0.5;exitDx=0;exitDy=0;entryX=0;entryY=0.5;entryDx=0;entryDy=0;" edge="1" parent="9uPaZ5e8Ui4jW4CoOzcB-42" source="9uPaZ5e8Ui4jW4CoOzcB-47" target="9uPaZ5e8Ui4jW4CoOzcB-51">
          <mxGeometry width="50" height="50" relative="1" as="geometry">
            <mxPoint x="-11.818181818181817" y="43.21114176849297" as="sourcePoint" />
            <mxPoint x="-41.36363636363636" y="70.21810537380108" as="targetPoint" />
          </mxGeometry>
        </mxCell>
        <mxCell id="9uPaZ5e8Ui4jW4CoOzcB-62" value="" style="endArrow=none;html=1;rounded=0;exitX=1;exitY=0.5;exitDx=0;exitDy=0;entryX=0;entryY=0.5;entryDx=0;entryDy=0;" edge="1" parent="9uPaZ5e8Ui4jW4CoOzcB-42" source="9uPaZ5e8Ui4jW4CoOzcB-47" target="9uPaZ5e8Ui4jW4CoOzcB-50">
          <mxGeometry width="50" height="50" relative="1" as="geometry">
            <mxPoint x="-11.818181818181817" y="43.21114176849297" as="sourcePoint" />
            <mxPoint x="-41.36363636363636" y="70.21810537380108" as="targetPoint" />
          </mxGeometry>
        </mxCell>
        <mxCell id="9uPaZ5e8Ui4jW4CoOzcB-63" value="" style="endArrow=none;html=1;rounded=0;exitX=1;exitY=0.5;exitDx=0;exitDy=0;entryX=0;entryY=0.5;entryDx=0;entryDy=0;" edge="1" parent="9uPaZ5e8Ui4jW4CoOzcB-42" source="9uPaZ5e8Ui4jW4CoOzcB-47" target="9uPaZ5e8Ui4jW4CoOzcB-53">
          <mxGeometry width="50" height="50" relative="1" as="geometry">
            <mxPoint x="-11.818181818181817" y="43.21114176849297" as="sourcePoint" />
            <mxPoint x="-41.36363636363636" y="70.21810537380108" as="targetPoint" />
          </mxGeometry>
        </mxCell>
        <mxCell id="9uPaZ5e8Ui4jW4CoOzcB-64" value="" style="endArrow=none;html=1;rounded=0;exitX=1;exitY=0.5;exitDx=0;exitDy=0;entryX=0;entryY=0.5;entryDx=0;entryDy=0;" edge="1" parent="9uPaZ5e8Ui4jW4CoOzcB-42" source="9uPaZ5e8Ui4jW4CoOzcB-46" target="9uPaZ5e8Ui4jW4CoOzcB-49">
          <mxGeometry width="50" height="50" relative="1" as="geometry">
            <mxPoint x="-11.818181818181817" y="43.21114176849297" as="sourcePoint" />
            <mxPoint x="-41.36363636363636" y="70.21810537380108" as="targetPoint" />
          </mxGeometry>
        </mxCell>
        <mxCell id="9uPaZ5e8Ui4jW4CoOzcB-65" value="" style="endArrow=none;html=1;rounded=0;exitX=1;exitY=0.5;exitDx=0;exitDy=0;entryX=0;entryY=0.5;entryDx=0;entryDy=0;" edge="1" parent="9uPaZ5e8Ui4jW4CoOzcB-42" source="9uPaZ5e8Ui4jW4CoOzcB-46" target="9uPaZ5e8Ui4jW4CoOzcB-51">
          <mxGeometry width="50" height="50" relative="1" as="geometry">
            <mxPoint x="-11.818181818181817" y="43.21114176849297" as="sourcePoint" />
            <mxPoint x="-41.36363636363636" y="70.21810537380108" as="targetPoint" />
          </mxGeometry>
        </mxCell>
        <mxCell id="9uPaZ5e8Ui4jW4CoOzcB-66" value="" style="endArrow=none;html=1;rounded=0;exitX=1;exitY=0.5;exitDx=0;exitDy=0;entryX=0;entryY=0.5;entryDx=0;entryDy=0;" edge="1" parent="9uPaZ5e8Ui4jW4CoOzcB-42" source="9uPaZ5e8Ui4jW4CoOzcB-46" target="9uPaZ5e8Ui4jW4CoOzcB-52">
          <mxGeometry width="50" height="50" relative="1" as="geometry">
            <mxPoint x="-11.818181818181817" y="43.21114176849297" as="sourcePoint" />
            <mxPoint x="-41.36363636363636" y="70.21810537380108" as="targetPoint" />
          </mxGeometry>
        </mxCell>
        <mxCell id="9uPaZ5e8Ui4jW4CoOzcB-67" value="" style="endArrow=none;html=1;rounded=0;exitX=1;exitY=0.5;exitDx=0;exitDy=0;entryX=0;entryY=0.5;entryDx=0;entryDy=0;" edge="1" parent="9uPaZ5e8Ui4jW4CoOzcB-42" source="9uPaZ5e8Ui4jW4CoOzcB-46" target="9uPaZ5e8Ui4jW4CoOzcB-50">
          <mxGeometry width="50" height="50" relative="1" as="geometry">
            <mxPoint x="-11.818181818181817" y="43.21114176849297" as="sourcePoint" />
            <mxPoint x="-41.36363636363636" y="70.21810537380108" as="targetPoint" />
          </mxGeometry>
        </mxCell>
        <mxCell id="9uPaZ5e8Ui4jW4CoOzcB-68" value="" style="endArrow=none;html=1;rounded=0;exitX=1;exitY=0.5;exitDx=0;exitDy=0;entryX=0;entryY=0.5;entryDx=0;entryDy=0;" edge="1" parent="9uPaZ5e8Ui4jW4CoOzcB-42" source="9uPaZ5e8Ui4jW4CoOzcB-46" target="9uPaZ5e8Ui4jW4CoOzcB-53">
          <mxGeometry width="50" height="50" relative="1" as="geometry">
            <mxPoint x="-11.818181818181817" y="43.21114176849297" as="sourcePoint" />
            <mxPoint x="-41.36363636363636" y="70.21810537380108" as="targetPoint" />
          </mxGeometry>
        </mxCell>
        <mxCell id="9uPaZ5e8Ui4jW4CoOzcB-69" value="" style="endArrow=none;html=1;rounded=0;exitX=1;exitY=0.5;exitDx=0;exitDy=0;entryX=0;entryY=0.5;entryDx=0;entryDy=0;" edge="1" parent="9uPaZ5e8Ui4jW4CoOzcB-42" source="9uPaZ5e8Ui4jW4CoOzcB-45" target="9uPaZ5e8Ui4jW4CoOzcB-49">
          <mxGeometry width="50" height="50" relative="1" as="geometry">
            <mxPoint x="-11.818181818181817" y="43.21114176849297" as="sourcePoint" />
            <mxPoint x="-41.36363636363636" y="70.21810537380108" as="targetPoint" />
          </mxGeometry>
        </mxCell>
        <mxCell id="9uPaZ5e8Ui4jW4CoOzcB-70" value="" style="endArrow=none;html=1;rounded=0;exitX=1;exitY=0.5;exitDx=0;exitDy=0;entryX=0;entryY=0.5;entryDx=0;entryDy=0;" edge="1" parent="9uPaZ5e8Ui4jW4CoOzcB-42" source="9uPaZ5e8Ui4jW4CoOzcB-45" target="9uPaZ5e8Ui4jW4CoOzcB-52">
          <mxGeometry width="50" height="50" relative="1" as="geometry">
            <mxPoint x="-11.818181818181817" y="43.21114176849297" as="sourcePoint" />
            <mxPoint x="-41.36363636363636" y="70.21810537380108" as="targetPoint" />
          </mxGeometry>
        </mxCell>
        <mxCell id="9uPaZ5e8Ui4jW4CoOzcB-71" value="" style="endArrow=none;html=1;rounded=0;exitX=1;exitY=0.5;exitDx=0;exitDy=0;entryX=0;entryY=0.5;entryDx=0;entryDy=0;" edge="1" parent="9uPaZ5e8Ui4jW4CoOzcB-42" source="9uPaZ5e8Ui4jW4CoOzcB-45" target="9uPaZ5e8Ui4jW4CoOzcB-51">
          <mxGeometry width="50" height="50" relative="1" as="geometry">
            <mxPoint x="-11.818181818181817" y="43.21114176849297" as="sourcePoint" />
            <mxPoint x="-41.36363636363636" y="70.21810537380108" as="targetPoint" />
          </mxGeometry>
        </mxCell>
        <mxCell id="9uPaZ5e8Ui4jW4CoOzcB-72" value="" style="endArrow=none;html=1;rounded=0;exitX=1;exitY=0.5;exitDx=0;exitDy=0;entryX=0;entryY=0.5;entryDx=0;entryDy=0;" edge="1" parent="9uPaZ5e8Ui4jW4CoOzcB-42" source="9uPaZ5e8Ui4jW4CoOzcB-45" target="9uPaZ5e8Ui4jW4CoOzcB-50">
          <mxGeometry width="50" height="50" relative="1" as="geometry">
            <mxPoint x="-11.818181818181817" y="43.21114176849297" as="sourcePoint" />
            <mxPoint x="-41.36363636363636" y="70.21810537380108" as="targetPoint" />
          </mxGeometry>
        </mxCell>
        <mxCell id="9uPaZ5e8Ui4jW4CoOzcB-73" value="" style="endArrow=none;html=1;rounded=0;exitX=1;exitY=0.5;exitDx=0;exitDy=0;entryX=0;entryY=0.5;entryDx=0;entryDy=0;" edge="1" parent="9uPaZ5e8Ui4jW4CoOzcB-42" source="9uPaZ5e8Ui4jW4CoOzcB-45" target="9uPaZ5e8Ui4jW4CoOzcB-53">
          <mxGeometry width="50" height="50" relative="1" as="geometry">
            <mxPoint x="-11.818181818181817" y="43.21114176849297" as="sourcePoint" />
            <mxPoint x="-41.36363636363636" y="70.21810537380108" as="targetPoint" />
          </mxGeometry>
        </mxCell>
        <mxCell id="9uPaZ5e8Ui4jW4CoOzcB-13" value="" style="group" vertex="1" connectable="0" parent="9uPaZ5e8Ui4jW4CoOzcB-82">
          <mxGeometry x="59.09090909090908" y="24.003789252397844" width="23.636363636363633" height="108.02785442123243" as="geometry" />
        </mxCell>
        <mxCell id="9uPaZ5e8Ui4jW4CoOzcB-4" value="" style="ellipse;whiteSpace=wrap;html=1;aspect=fixed;" vertex="1" parent="9uPaZ5e8Ui4jW4CoOzcB-13">
          <mxGeometry width="15.412181637347201" height="15.412181637347201" as="geometry" />
        </mxCell>
        <mxCell id="9uPaZ5e8Ui4jW4CoOzcB-6" value="" style="ellipse;whiteSpace=wrap;html=1;aspect=fixed;" vertex="1" parent="9uPaZ5e8Ui4jW4CoOzcB-13">
          <mxGeometry y="92.59530378962779" width="15.412181637347201" height="15.412181637347201" as="geometry" />
        </mxCell>
        <mxCell id="9uPaZ5e8Ui4jW4CoOzcB-7" value="" style="ellipse;whiteSpace=wrap;html=1;aspect=fixed;" vertex="1" parent="9uPaZ5e8Ui4jW4CoOzcB-13">
          <mxGeometry y="61.73020252641853" width="15.412181637347201" height="15.412181637347201" as="geometry" />
        </mxCell>
        <mxCell id="9uPaZ5e8Ui4jW4CoOzcB-8" value="" style="ellipse;whiteSpace=wrap;html=1;aspect=fixed;" vertex="1" parent="9uPaZ5e8Ui4jW4CoOzcB-13">
          <mxGeometry y="30.865101263209265" width="15.412181637347201" height="15.412181637347201" as="geometry" />
        </mxCell>
        <mxCell id="9uPaZ5e8Ui4jW4CoOzcB-15" value="" style="endArrow=none;html=1;rounded=0;exitX=1;exitY=0.5;exitDx=0;exitDy=0;entryX=0;entryY=0.5;entryDx=0;entryDy=0;" edge="1" parent="9uPaZ5e8Ui4jW4CoOzcB-82" source="9uPaZ5e8Ui4jW4CoOzcB-4" target="9uPaZ5e8Ui4jW4CoOzcB-5">
          <mxGeometry width="50" height="50" relative="1" as="geometry">
            <mxPoint x="147.72727272727272" y="110.42607278938378" as="sourcePoint" />
            <mxPoint x="177.27272727272725" y="83.41910918407568" as="targetPoint" />
          </mxGeometry>
        </mxCell>
        <mxCell id="9uPaZ5e8Ui4jW4CoOzcB-16" value="" style="endArrow=none;html=1;rounded=0;exitX=1;exitY=0.5;exitDx=0;exitDy=0;entryX=0;entryY=0.5;entryDx=0;entryDy=0;" edge="1" parent="9uPaZ5e8Ui4jW4CoOzcB-82" source="9uPaZ5e8Ui4jW4CoOzcB-4" target="9uPaZ5e8Ui4jW4CoOzcB-11">
          <mxGeometry width="50" height="50" relative="1" as="geometry">
            <mxPoint x="147.72727272727272" y="110.42607278938378" as="sourcePoint" />
            <mxPoint x="177.27272727272725" y="83.41910918407568" as="targetPoint" />
          </mxGeometry>
        </mxCell>
        <mxCell id="9uPaZ5e8Ui4jW4CoOzcB-17" value="" style="endArrow=none;html=1;rounded=0;exitX=1;exitY=0.5;exitDx=0;exitDy=0;entryX=0;entryY=0.5;entryDx=0;entryDy=0;" edge="1" parent="9uPaZ5e8Ui4jW4CoOzcB-82" source="9uPaZ5e8Ui4jW4CoOzcB-4" target="9uPaZ5e8Ui4jW4CoOzcB-10">
          <mxGeometry width="50" height="50" relative="1" as="geometry">
            <mxPoint x="147.72727272727272" y="110.42607278938378" as="sourcePoint" />
            <mxPoint x="177.27272727272725" y="83.41910918407568" as="targetPoint" />
          </mxGeometry>
        </mxCell>
        <mxCell id="9uPaZ5e8Ui4jW4CoOzcB-19" value="" style="endArrow=none;html=1;rounded=0;exitX=1;exitY=0.5;exitDx=0;exitDy=0;entryX=0;entryY=0.5;entryDx=0;entryDy=0;" edge="1" parent="9uPaZ5e8Ui4jW4CoOzcB-82" source="9uPaZ5e8Ui4jW4CoOzcB-4" target="9uPaZ5e8Ui4jW4CoOzcB-9">
          <mxGeometry width="50" height="50" relative="1" as="geometry">
            <mxPoint x="159.54545454545453" y="40.20796741558271" as="sourcePoint" />
            <mxPoint x="189.09090909090907" y="13.201003810274601" as="targetPoint" />
          </mxGeometry>
        </mxCell>
        <mxCell id="9uPaZ5e8Ui4jW4CoOzcB-20" value="" style="endArrow=none;html=1;rounded=0;exitX=1;exitY=0.5;exitDx=0;exitDy=0;entryX=0;entryY=0.5;entryDx=0;entryDy=0;" edge="1" parent="9uPaZ5e8Ui4jW4CoOzcB-82" source="9uPaZ5e8Ui4jW4CoOzcB-4" target="9uPaZ5e8Ui4jW4CoOzcB-12">
          <mxGeometry width="50" height="50" relative="1" as="geometry">
            <mxPoint x="147.72727272727272" y="110.42607278938378" as="sourcePoint" />
            <mxPoint x="177.27272727272725" y="83.41910918407568" as="targetPoint" />
          </mxGeometry>
        </mxCell>
        <mxCell id="9uPaZ5e8Ui4jW4CoOzcB-21" value="" style="endArrow=none;html=1;rounded=0;exitX=1;exitY=0.5;exitDx=0;exitDy=0;entryX=0;entryY=0.5;entryDx=0;entryDy=0;" edge="1" parent="9uPaZ5e8Ui4jW4CoOzcB-82" source="9uPaZ5e8Ui4jW4CoOzcB-8" target="9uPaZ5e8Ui4jW4CoOzcB-5">
          <mxGeometry width="50" height="50" relative="1" as="geometry">
            <mxPoint x="147.72727272727272" y="110.42607278938378" as="sourcePoint" />
            <mxPoint x="177.27272727272725" y="83.41910918407568" as="targetPoint" />
          </mxGeometry>
        </mxCell>
        <mxCell id="9uPaZ5e8Ui4jW4CoOzcB-22" value="" style="endArrow=none;html=1;rounded=0;exitX=1;exitY=0.5;exitDx=0;exitDy=0;entryX=0;entryY=0.5;entryDx=0;entryDy=0;" edge="1" parent="9uPaZ5e8Ui4jW4CoOzcB-82" source="9uPaZ5e8Ui4jW4CoOzcB-8" target="9uPaZ5e8Ui4jW4CoOzcB-11">
          <mxGeometry width="50" height="50" relative="1" as="geometry">
            <mxPoint x="147.72727272727272" y="110.42607278938378" as="sourcePoint" />
            <mxPoint x="177.27272727272725" y="83.41910918407568" as="targetPoint" />
          </mxGeometry>
        </mxCell>
        <mxCell id="9uPaZ5e8Ui4jW4CoOzcB-23" value="" style="endArrow=none;html=1;rounded=0;exitX=1;exitY=0.5;exitDx=0;exitDy=0;entryX=0;entryY=0.5;entryDx=0;entryDy=0;" edge="1" parent="9uPaZ5e8Ui4jW4CoOzcB-82" source="9uPaZ5e8Ui4jW4CoOzcB-8" target="9uPaZ5e8Ui4jW4CoOzcB-10">
          <mxGeometry width="50" height="50" relative="1" as="geometry">
            <mxPoint x="147.72727272727272" y="110.42607278938378" as="sourcePoint" />
            <mxPoint x="177.27272727272725" y="83.41910918407568" as="targetPoint" />
          </mxGeometry>
        </mxCell>
        <mxCell id="9uPaZ5e8Ui4jW4CoOzcB-24" value="" style="endArrow=none;html=1;rounded=0;exitX=1;exitY=0.5;exitDx=0;exitDy=0;entryX=0;entryY=0.5;entryDx=0;entryDy=0;" edge="1" parent="9uPaZ5e8Ui4jW4CoOzcB-82" source="9uPaZ5e8Ui4jW4CoOzcB-8" target="9uPaZ5e8Ui4jW4CoOzcB-9">
          <mxGeometry width="50" height="50" relative="1" as="geometry">
            <mxPoint x="147.72727272727272" y="110.42607278938378" as="sourcePoint" />
            <mxPoint x="177.27272727272725" y="83.41910918407568" as="targetPoint" />
          </mxGeometry>
        </mxCell>
        <mxCell id="9uPaZ5e8Ui4jW4CoOzcB-25" value="" style="endArrow=none;html=1;rounded=0;exitX=1;exitY=0.5;exitDx=0;exitDy=0;entryX=0;entryY=0.5;entryDx=0;entryDy=0;" edge="1" parent="9uPaZ5e8Ui4jW4CoOzcB-82" source="9uPaZ5e8Ui4jW4CoOzcB-8" target="9uPaZ5e8Ui4jW4CoOzcB-12">
          <mxGeometry width="50" height="50" relative="1" as="geometry">
            <mxPoint x="147.72727272727272" y="110.42607278938378" as="sourcePoint" />
            <mxPoint x="177.27272727272725" y="83.41910918407568" as="targetPoint" />
          </mxGeometry>
        </mxCell>
        <mxCell id="9uPaZ5e8Ui4jW4CoOzcB-26" value="" style="endArrow=none;html=1;rounded=0;exitX=1;exitY=0.5;exitDx=0;exitDy=0;entryX=0;entryY=0.5;entryDx=0;entryDy=0;" edge="1" parent="9uPaZ5e8Ui4jW4CoOzcB-82" source="9uPaZ5e8Ui4jW4CoOzcB-7" target="9uPaZ5e8Ui4jW4CoOzcB-5">
          <mxGeometry width="50" height="50" relative="1" as="geometry">
            <mxPoint x="147.72727272727272" y="110.42607278938378" as="sourcePoint" />
            <mxPoint x="177.27272727272725" y="83.41910918407568" as="targetPoint" />
          </mxGeometry>
        </mxCell>
        <mxCell id="9uPaZ5e8Ui4jW4CoOzcB-27" value="" style="endArrow=none;html=1;rounded=0;exitX=1;exitY=0.5;exitDx=0;exitDy=0;entryX=0;entryY=0.5;entryDx=0;entryDy=0;" edge="1" parent="9uPaZ5e8Ui4jW4CoOzcB-82" source="9uPaZ5e8Ui4jW4CoOzcB-7" target="9uPaZ5e8Ui4jW4CoOzcB-10">
          <mxGeometry width="50" height="50" relative="1" as="geometry">
            <mxPoint x="147.72727272727272" y="110.42607278938378" as="sourcePoint" />
            <mxPoint x="177.27272727272725" y="83.41910918407568" as="targetPoint" />
          </mxGeometry>
        </mxCell>
        <mxCell id="9uPaZ5e8Ui4jW4CoOzcB-28" value="" style="endArrow=none;html=1;rounded=0;exitX=1;exitY=0.5;exitDx=0;exitDy=0;entryX=0;entryY=0.5;entryDx=0;entryDy=0;" edge="1" parent="9uPaZ5e8Ui4jW4CoOzcB-82" source="9uPaZ5e8Ui4jW4CoOzcB-7" target="9uPaZ5e8Ui4jW4CoOzcB-11">
          <mxGeometry width="50" height="50" relative="1" as="geometry">
            <mxPoint x="147.72727272727272" y="110.42607278938378" as="sourcePoint" />
            <mxPoint x="177.27272727272725" y="83.41910918407568" as="targetPoint" />
          </mxGeometry>
        </mxCell>
        <mxCell id="9uPaZ5e8Ui4jW4CoOzcB-29" value="" style="endArrow=none;html=1;rounded=0;exitX=1;exitY=0.5;exitDx=0;exitDy=0;entryX=0;entryY=0.5;entryDx=0;entryDy=0;" edge="1" parent="9uPaZ5e8Ui4jW4CoOzcB-82" source="9uPaZ5e8Ui4jW4CoOzcB-7" target="9uPaZ5e8Ui4jW4CoOzcB-9">
          <mxGeometry width="50" height="50" relative="1" as="geometry">
            <mxPoint x="147.72727272727272" y="110.42607278938378" as="sourcePoint" />
            <mxPoint x="177.27272727272725" y="83.41910918407568" as="targetPoint" />
          </mxGeometry>
        </mxCell>
        <mxCell id="9uPaZ5e8Ui4jW4CoOzcB-30" value="" style="endArrow=none;html=1;rounded=0;exitX=1;exitY=0.5;exitDx=0;exitDy=0;entryX=0;entryY=0.5;entryDx=0;entryDy=0;" edge="1" parent="9uPaZ5e8Ui4jW4CoOzcB-82" source="9uPaZ5e8Ui4jW4CoOzcB-7" target="9uPaZ5e8Ui4jW4CoOzcB-12">
          <mxGeometry width="50" height="50" relative="1" as="geometry">
            <mxPoint x="147.72727272727272" y="110.42607278938378" as="sourcePoint" />
            <mxPoint x="177.27272727272725" y="83.41910918407568" as="targetPoint" />
          </mxGeometry>
        </mxCell>
        <mxCell id="9uPaZ5e8Ui4jW4CoOzcB-31" value="" style="endArrow=none;html=1;rounded=0;exitX=1;exitY=0.5;exitDx=0;exitDy=0;entryX=0;entryY=0.5;entryDx=0;entryDy=0;" edge="1" parent="9uPaZ5e8Ui4jW4CoOzcB-82" source="9uPaZ5e8Ui4jW4CoOzcB-6" target="9uPaZ5e8Ui4jW4CoOzcB-5">
          <mxGeometry width="50" height="50" relative="1" as="geometry">
            <mxPoint x="147.72727272727272" y="110.42607278938378" as="sourcePoint" />
            <mxPoint x="177.27272727272725" y="83.41910918407568" as="targetPoint" />
          </mxGeometry>
        </mxCell>
        <mxCell id="9uPaZ5e8Ui4jW4CoOzcB-33" value="" style="endArrow=none;html=1;rounded=0;exitX=1;exitY=0.5;exitDx=0;exitDy=0;entryX=0;entryY=0.5;entryDx=0;entryDy=0;" edge="1" parent="9uPaZ5e8Ui4jW4CoOzcB-82" source="9uPaZ5e8Ui4jW4CoOzcB-6" target="9uPaZ5e8Ui4jW4CoOzcB-11">
          <mxGeometry width="50" height="50" relative="1" as="geometry">
            <mxPoint x="147.72727272727272" y="110.42607278938378" as="sourcePoint" />
            <mxPoint x="177.27272727272725" y="83.41910918407568" as="targetPoint" />
          </mxGeometry>
        </mxCell>
        <mxCell id="9uPaZ5e8Ui4jW4CoOzcB-34" value="" style="endArrow=none;html=1;rounded=0;exitX=1;exitY=0.5;exitDx=0;exitDy=0;entryX=0;entryY=0.5;entryDx=0;entryDy=0;" edge="1" parent="9uPaZ5e8Ui4jW4CoOzcB-82" source="9uPaZ5e8Ui4jW4CoOzcB-6" target="9uPaZ5e8Ui4jW4CoOzcB-10">
          <mxGeometry width="50" height="50" relative="1" as="geometry">
            <mxPoint x="147.72727272727272" y="110.42607278938378" as="sourcePoint" />
            <mxPoint x="177.27272727272725" y="83.41910918407568" as="targetPoint" />
          </mxGeometry>
        </mxCell>
        <mxCell id="9uPaZ5e8Ui4jW4CoOzcB-35" value="" style="endArrow=none;html=1;rounded=0;exitX=1;exitY=0.5;exitDx=0;exitDy=0;entryX=0;entryY=0.5;entryDx=0;entryDy=0;" edge="1" parent="9uPaZ5e8Ui4jW4CoOzcB-82" source="9uPaZ5e8Ui4jW4CoOzcB-6" target="9uPaZ5e8Ui4jW4CoOzcB-9">
          <mxGeometry width="50" height="50" relative="1" as="geometry">
            <mxPoint x="147.72727272727272" y="110.42607278938378" as="sourcePoint" />
            <mxPoint x="177.27272727272725" y="83.41910918407568" as="targetPoint" />
          </mxGeometry>
        </mxCell>
        <mxCell id="9uPaZ5e8Ui4jW4CoOzcB-36" value="" style="endArrow=none;html=1;rounded=0;exitX=1;exitY=0.5;exitDx=0;exitDy=0;entryX=0;entryY=0.5;entryDx=0;entryDy=0;" edge="1" parent="9uPaZ5e8Ui4jW4CoOzcB-82" source="9uPaZ5e8Ui4jW4CoOzcB-6" target="9uPaZ5e8Ui4jW4CoOzcB-12">
          <mxGeometry width="50" height="50" relative="1" as="geometry">
            <mxPoint x="147.72727272727272" y="110.42607278938378" as="sourcePoint" />
            <mxPoint x="177.27272727272725" y="83.41910918407568" as="targetPoint" />
          </mxGeometry>
        </mxCell>
        <mxCell id="9uPaZ5e8Ui4jW4CoOzcB-5" value="" style="ellipse;whiteSpace=wrap;html=1;aspect=fixed;" vertex="1" parent="9uPaZ5e8Ui4jW4CoOzcB-82">
          <mxGeometry x="112.27272727272727" y="2.3982183681513587" width="14.384702861524053" height="14.384702861524053" as="geometry" />
        </mxCell>
        <mxCell id="9uPaZ5e8Ui4jW4CoOzcB-9" value="" style="ellipse;whiteSpace=wrap;html=1;aspect=fixed;" vertex="1" parent="9uPaZ5e8Ui4jW4CoOzcB-82">
          <mxGeometry x="112.27272727272727" y="103.22421582796827" width="14.384702861524053" height="14.384702861524053" as="geometry" />
        </mxCell>
        <mxCell id="9uPaZ5e8Ui4jW4CoOzcB-10" value="" style="ellipse;whiteSpace=wrap;html=1;aspect=fixed;" vertex="1" parent="9uPaZ5e8Ui4jW4CoOzcB-82">
          <mxGeometry x="112.27272727272727" y="69.61555000802933" width="14.384702861524053" height="14.384702861524053" as="geometry" />
        </mxCell>
        <mxCell id="9uPaZ5e8Ui4jW4CoOzcB-11" value="" style="ellipse;whiteSpace=wrap;html=1;aspect=fixed;" vertex="1" parent="9uPaZ5e8Ui4jW4CoOzcB-82">
          <mxGeometry x="112.27272727272727" y="36.00688418809034" width="14.384702861524053" height="14.384702861524053" as="geometry" />
        </mxCell>
        <mxCell id="9uPaZ5e8Ui4jW4CoOzcB-12" value="" style="ellipse;whiteSpace=wrap;html=1;aspect=fixed;" vertex="1" parent="9uPaZ5e8Ui4jW4CoOzcB-82">
          <mxGeometry x="112.27272727272727" y="136.83288164790727" width="14.384702861524053" height="14.384702861524053" as="geometry" />
        </mxCell>
        <mxCell id="9uPaZ5e8Ui4jW4CoOzcB-76" value="" style="endArrow=none;dashed=1;html=1;dashPattern=1 3;strokeWidth=2;rounded=0;exitX=1;exitY=0.5;exitDx=0;exitDy=0;entryX=1;entryY=0.5;entryDx=0;entryDy=0;" edge="1" parent="9uPaZ5e8Ui4jW4CoOzcB-82" source="9uPaZ5e8Ui4jW4CoOzcB-5" target="9uPaZ5e8Ui4jW4CoOzcB-53">
          <mxGeometry width="50" height="50" relative="1" as="geometry">
            <mxPoint x="147.72727272727272" y="110.42607278938378" as="sourcePoint" />
            <mxPoint x="177.27272727272725" y="83.41910918407568" as="targetPoint" />
          </mxGeometry>
        </mxCell>
        <mxCell id="9uPaZ5e8Ui4jW4CoOzcB-77" value="" style="endArrow=none;dashed=1;html=1;dashPattern=1 3;strokeWidth=2;rounded=0;exitX=1;exitY=0.5;exitDx=0;exitDy=0;entryX=1;entryY=0.5;entryDx=0;entryDy=0;" edge="1" parent="9uPaZ5e8Ui4jW4CoOzcB-82" source="9uPaZ5e8Ui4jW4CoOzcB-11" target="9uPaZ5e8Ui4jW4CoOzcB-50">
          <mxGeometry width="50" height="50" relative="1" as="geometry">
            <mxPoint x="133.9393939393914" y="15.001468050628466" as="sourcePoint" />
            <mxPoint x="184.3636363636389" y="14.763806770901756" as="targetPoint" />
          </mxGeometry>
        </mxCell>
        <mxCell id="9uPaZ5e8Ui4jW4CoOzcB-78" value="" style="endArrow=none;dashed=1;html=1;dashPattern=1 3;strokeWidth=2;rounded=0;exitX=1;exitY=0.5;exitDx=0;exitDy=0;entryX=1;entryY=0.5;entryDx=0;entryDy=0;" edge="1" parent="9uPaZ5e8Ui4jW4CoOzcB-82" source="9uPaZ5e8Ui4jW4CoOzcB-10" target="9uPaZ5e8Ui4jW4CoOzcB-51">
          <mxGeometry width="50" height="50" relative="1" as="geometry">
            <mxPoint x="133.9393939393914" y="48.61013387056745" as="sourcePoint" />
            <mxPoint x="184.3636363636389" y="48.79258091358997" as="targetPoint" />
          </mxGeometry>
        </mxCell>
        <mxCell id="9uPaZ5e8Ui4jW4CoOzcB-79" value="" style="endArrow=none;dashed=1;html=1;dashPattern=1 3;strokeWidth=2;rounded=0;exitX=1;exitY=0.5;exitDx=0;exitDy=0;entryX=1;entryY=0.5;entryDx=0;entryDy=0;" edge="1" parent="9uPaZ5e8Ui4jW4CoOzcB-82" source="9uPaZ5e8Ui4jW4CoOzcB-9" target="9uPaZ5e8Ui4jW4CoOzcB-52">
          <mxGeometry width="50" height="50" relative="1" as="geometry">
            <mxPoint x="133.9393939393914" y="82.21879969050646" as="sourcePoint" />
            <mxPoint x="184.3636363636389" y="82.28121578417202" as="targetPoint" />
          </mxGeometry>
        </mxCell>
        <mxCell id="9uPaZ5e8Ui4jW4CoOzcB-80" value="" style="endArrow=none;dashed=1;html=1;dashPattern=1 3;strokeWidth=2;rounded=0;exitX=1;exitY=0.5;exitDx=0;exitDy=0;entryX=1;entryY=0.5;entryDx=0;entryDy=0;" edge="1" parent="9uPaZ5e8Ui4jW4CoOzcB-82" source="9uPaZ5e8Ui4jW4CoOzcB-12" target="9uPaZ5e8Ui4jW4CoOzcB-49">
          <mxGeometry width="50" height="50" relative="1" as="geometry">
            <mxPoint x="133.9393939393914" y="115.8274655104454" as="sourcePoint" />
            <mxPoint x="184.3636363636389" y="115.76985065475407" as="targetPoint" />
          </mxGeometry>
        </mxCell>
        <mxCell id="9uPaZ5e8Ui4jW4CoOzcB-157" value="" style="group" vertex="1" connectable="0" parent="1">
          <mxGeometry x="80" y="240" width="260" height="164.44" as="geometry" />
        </mxCell>
        <mxCell id="9uPaZ5e8Ui4jW4CoOzcB-158" value="" style="rounded=0;whiteSpace=wrap;html=1;fillColor=none;strokeColor=#CCE5FF;strokeWidth=6;" vertex="1" parent="9uPaZ5e8Ui4jW4CoOzcB-157">
          <mxGeometry y="2.3982183681513587" width="260" height="162.04178163184866" as="geometry" />
        </mxCell>
        <mxCell id="9uPaZ5e8Ui4jW4CoOzcB-159" value="x2" style="ellipse;whiteSpace=wrap;html=1;aspect=fixed;" vertex="1" parent="9uPaZ5e8Ui4jW4CoOzcB-157">
          <mxGeometry x="5.909090909090908" y="67.21493102089082" width="21.57705429228608" height="21.57705429228608" as="geometry" />
        </mxCell>
        <mxCell id="9uPaZ5e8Ui4jW4CoOzcB-160" value="" style="endArrow=none;html=1;rounded=0;exitX=1;exitY=0.5;exitDx=0;exitDy=0;entryX=0;entryY=0.5;entryDx=0;entryDy=0;" edge="1" parent="9uPaZ5e8Ui4jW4CoOzcB-157" source="9uPaZ5e8Ui4jW4CoOzcB-159" target="9uPaZ5e8Ui4jW4CoOzcB-197">
          <mxGeometry width="50" height="50" relative="1" as="geometry">
            <mxPoint x="147.72727272727272" y="110.42607278938378" as="sourcePoint" />
            <mxPoint x="177.27272727272725" y="83.41910918407568" as="targetPoint" />
          </mxGeometry>
        </mxCell>
        <mxCell id="9uPaZ5e8Ui4jW4CoOzcB-161" value="" style="endArrow=none;html=1;rounded=0;exitX=1;exitY=0.5;exitDx=0;exitDy=0;entryX=0;entryY=0.5;entryDx=0;entryDy=0;" edge="1" parent="9uPaZ5e8Ui4jW4CoOzcB-157" source="9uPaZ5e8Ui4jW4CoOzcB-159" target="9uPaZ5e8Ui4jW4CoOzcB-200">
          <mxGeometry width="50" height="50" relative="1" as="geometry">
            <mxPoint x="147.72727272727272" y="110.42607278938378" as="sourcePoint" />
            <mxPoint x="177.27272727272725" y="83.41910918407568" as="targetPoint" />
          </mxGeometry>
        </mxCell>
        <mxCell id="9uPaZ5e8Ui4jW4CoOzcB-162" value="" style="endArrow=none;html=1;rounded=0;exitX=1;exitY=0.5;exitDx=0;exitDy=0;entryX=0;entryY=0.5;entryDx=0;entryDy=0;" edge="1" parent="9uPaZ5e8Ui4jW4CoOzcB-157" source="9uPaZ5e8Ui4jW4CoOzcB-159" target="9uPaZ5e8Ui4jW4CoOzcB-199">
          <mxGeometry width="50" height="50" relative="1" as="geometry">
            <mxPoint x="147.72727272727272" y="110.42607278938378" as="sourcePoint" />
            <mxPoint x="177.27272727272725" y="83.41910918407568" as="targetPoint" />
          </mxGeometry>
        </mxCell>
        <mxCell id="9uPaZ5e8Ui4jW4CoOzcB-163" value="" style="endArrow=none;html=1;rounded=0;exitX=1;exitY=0.5;exitDx=0;exitDy=0;entryX=0;entryY=0.5;entryDx=0;entryDy=0;" edge="1" parent="9uPaZ5e8Ui4jW4CoOzcB-157" source="9uPaZ5e8Ui4jW4CoOzcB-159" target="9uPaZ5e8Ui4jW4CoOzcB-198">
          <mxGeometry width="50" height="50" relative="1" as="geometry">
            <mxPoint x="147.72727272727272" y="110.42607278938378" as="sourcePoint" />
            <mxPoint x="177.27272727272725" y="83.41910918407568" as="targetPoint" />
          </mxGeometry>
        </mxCell>
        <mxCell id="9uPaZ5e8Ui4jW4CoOzcB-164" value="" style="group;flipH=0;direction=east;rotation=-180;" vertex="1" connectable="0" parent="9uPaZ5e8Ui4jW4CoOzcB-157">
          <mxGeometry x="170.77272727272725" width="76.81818181818181" height="151.2389961897254" as="geometry" />
        </mxCell>
        <mxCell id="9uPaZ5e8Ui4jW4CoOzcB-165" value="" style="group;rotation=-180;" vertex="1" connectable="0" parent="9uPaZ5e8Ui4jW4CoOzcB-164">
          <mxGeometry x="53.18181818181818" y="21.605570884246486" width="23.636363636363633" height="108.02785442123243" as="geometry" />
        </mxCell>
        <mxCell id="9uPaZ5e8Ui4jW4CoOzcB-166" value="" style="ellipse;whiteSpace=wrap;html=1;aspect=fixed;rotation=-180;" vertex="1" parent="9uPaZ5e8Ui4jW4CoOzcB-165">
          <mxGeometry x="6.5" y="92.36381553015373" width="15.412181637347201" height="15.412181637347201" as="geometry" />
        </mxCell>
        <mxCell id="9uPaZ5e8Ui4jW4CoOzcB-167" value="" style="ellipse;whiteSpace=wrap;html=1;aspect=fixed;rotation=-180;" vertex="1" parent="9uPaZ5e8Ui4jW4CoOzcB-165">
          <mxGeometry x="6.5" width="15.412181637347201" height="15.412181637347201" as="geometry" />
        </mxCell>
        <mxCell id="9uPaZ5e8Ui4jW4CoOzcB-168" value="" style="ellipse;whiteSpace=wrap;html=1;aspect=fixed;rotation=-180;" vertex="1" parent="9uPaZ5e8Ui4jW4CoOzcB-165">
          <mxGeometry x="6.5" y="30.78793851005124" width="15.412181637347201" height="15.412181637347201" as="geometry" />
        </mxCell>
        <mxCell id="9uPaZ5e8Ui4jW4CoOzcB-169" value="" style="ellipse;whiteSpace=wrap;html=1;aspect=fixed;rotation=-180;" vertex="1" parent="9uPaZ5e8Ui4jW4CoOzcB-165">
          <mxGeometry x="6.5" y="61.57587702010248" width="15.412181637347201" height="15.412181637347201" as="geometry" />
        </mxCell>
        <mxCell id="9uPaZ5e8Ui4jW4CoOzcB-170" value="" style="group;rotation=-180;" vertex="1" connectable="0" parent="9uPaZ5e8Ui4jW4CoOzcB-164">
          <mxGeometry width="23.636363636363633" height="151.2389961897254" as="geometry" />
        </mxCell>
        <mxCell id="9uPaZ5e8Ui4jW4CoOzcB-171" value="" style="ellipse;whiteSpace=wrap;html=1;aspect=fixed;rotation=-180;" vertex="1" parent="9uPaZ5e8Ui4jW4CoOzcB-170">
          <mxGeometry x="7.681818181818181" y="136.65523584285904" width="14.384702861524053" height="14.384702861524053" as="geometry" />
        </mxCell>
        <mxCell id="9uPaZ5e8Ui4jW4CoOzcB-172" value="" style="ellipse;whiteSpace=wrap;html=1;aspect=fixed;rotation=-180;" vertex="1" parent="9uPaZ5e8Ui4jW4CoOzcB-170">
          <mxGeometry x="7.681818181818181" y="36.18933123111286" width="14.384702861524053" height="14.384702861524053" as="geometry" />
        </mxCell>
        <mxCell id="9uPaZ5e8Ui4jW4CoOzcB-173" value="" style="ellipse;whiteSpace=wrap;html=1;aspect=fixed;rotation=-180;" vertex="1" parent="9uPaZ5e8Ui4jW4CoOzcB-170">
          <mxGeometry x="7.681818181818181" y="69.67796610169492" width="14.384702861524053" height="14.384702861524053" as="geometry" />
        </mxCell>
        <mxCell id="9uPaZ5e8Ui4jW4CoOzcB-174" value="" style="ellipse;whiteSpace=wrap;html=1;aspect=fixed;rotation=-180;" vertex="1" parent="9uPaZ5e8Ui4jW4CoOzcB-170">
          <mxGeometry x="7.681818181818181" y="103.16660097227697" width="14.384702861524053" height="14.384702861524053" as="geometry" />
        </mxCell>
        <mxCell id="9uPaZ5e8Ui4jW4CoOzcB-175" value="" style="ellipse;whiteSpace=wrap;html=1;aspect=fixed;rotation=-180;" vertex="1" parent="9uPaZ5e8Ui4jW4CoOzcB-170">
          <mxGeometry x="7.681818181818181" y="2.1605570884246488" width="14.384702861524053" height="14.384702861524053" as="geometry" />
        </mxCell>
        <mxCell id="9uPaZ5e8Ui4jW4CoOzcB-176" value="" style="endArrow=none;html=1;rounded=0;exitX=1;exitY=0.5;exitDx=0;exitDy=0;entryX=0;entryY=0.5;entryDx=0;entryDy=0;" edge="1" parent="9uPaZ5e8Ui4jW4CoOzcB-164" source="9uPaZ5e8Ui4jW4CoOzcB-166" target="9uPaZ5e8Ui4jW4CoOzcB-171">
          <mxGeometry width="50" height="50" relative="1" as="geometry">
            <mxPoint x="-11.818181818181817" y="43.21114176849297" as="sourcePoint" />
            <mxPoint x="-41.36363636363636" y="70.21810537380108" as="targetPoint" />
          </mxGeometry>
        </mxCell>
        <mxCell id="9uPaZ5e8Ui4jW4CoOzcB-177" value="" style="endArrow=none;html=1;rounded=0;exitX=1;exitY=0.5;exitDx=0;exitDy=0;entryX=0;entryY=0.5;entryDx=0;entryDy=0;" edge="1" parent="9uPaZ5e8Ui4jW4CoOzcB-164" source="9uPaZ5e8Ui4jW4CoOzcB-166" target="9uPaZ5e8Ui4jW4CoOzcB-174">
          <mxGeometry width="50" height="50" relative="1" as="geometry">
            <mxPoint x="-11.818181818181817" y="43.21114176849297" as="sourcePoint" />
            <mxPoint x="-41.36363636363636" y="70.21810537380108" as="targetPoint" />
          </mxGeometry>
        </mxCell>
        <mxCell id="9uPaZ5e8Ui4jW4CoOzcB-178" value="" style="endArrow=none;html=1;rounded=0;exitX=1;exitY=0.5;exitDx=0;exitDy=0;entryX=0;entryY=0.5;entryDx=0;entryDy=0;" edge="1" parent="9uPaZ5e8Ui4jW4CoOzcB-164" source="9uPaZ5e8Ui4jW4CoOzcB-166" target="9uPaZ5e8Ui4jW4CoOzcB-173">
          <mxGeometry width="50" height="50" relative="1" as="geometry">
            <mxPoint x="-11.818181818181817" y="43.21114176849297" as="sourcePoint" />
            <mxPoint x="-41.36363636363636" y="70.21810537380108" as="targetPoint" />
          </mxGeometry>
        </mxCell>
        <mxCell id="9uPaZ5e8Ui4jW4CoOzcB-179" value="" style="endArrow=none;html=1;rounded=0;exitX=1;exitY=0.5;exitDx=0;exitDy=0;entryX=0;entryY=0.5;entryDx=0;entryDy=0;" edge="1" parent="9uPaZ5e8Ui4jW4CoOzcB-164" source="9uPaZ5e8Ui4jW4CoOzcB-166" target="9uPaZ5e8Ui4jW4CoOzcB-172">
          <mxGeometry width="50" height="50" relative="1" as="geometry">
            <mxPoint x="-23.636363636363633" y="113.42924714229405" as="sourcePoint" />
            <mxPoint x="-53.18181818181818" y="140.43621074760216" as="targetPoint" />
          </mxGeometry>
        </mxCell>
        <mxCell id="9uPaZ5e8Ui4jW4CoOzcB-180" value="" style="endArrow=none;html=1;rounded=0;exitX=1;exitY=0.5;exitDx=0;exitDy=0;entryX=0;entryY=0.5;entryDx=0;entryDy=0;" edge="1" parent="9uPaZ5e8Ui4jW4CoOzcB-164" source="9uPaZ5e8Ui4jW4CoOzcB-166" target="9uPaZ5e8Ui4jW4CoOzcB-175">
          <mxGeometry width="50" height="50" relative="1" as="geometry">
            <mxPoint x="-11.818181818181817" y="43.21114176849297" as="sourcePoint" />
            <mxPoint x="-41.36363636363636" y="70.21810537380108" as="targetPoint" />
          </mxGeometry>
        </mxCell>
        <mxCell id="9uPaZ5e8Ui4jW4CoOzcB-181" value="" style="endArrow=none;html=1;rounded=0;exitX=1;exitY=0.5;exitDx=0;exitDy=0;entryX=0;entryY=0.5;entryDx=0;entryDy=0;" edge="1" parent="9uPaZ5e8Ui4jW4CoOzcB-164" source="9uPaZ5e8Ui4jW4CoOzcB-169" target="9uPaZ5e8Ui4jW4CoOzcB-171">
          <mxGeometry width="50" height="50" relative="1" as="geometry">
            <mxPoint x="-11.818181818181817" y="43.21114176849297" as="sourcePoint" />
            <mxPoint x="-41.36363636363636" y="70.21810537380108" as="targetPoint" />
          </mxGeometry>
        </mxCell>
        <mxCell id="9uPaZ5e8Ui4jW4CoOzcB-182" value="" style="endArrow=none;html=1;rounded=0;exitX=1;exitY=0.5;exitDx=0;exitDy=0;entryX=0;entryY=0.5;entryDx=0;entryDy=0;" edge="1" parent="9uPaZ5e8Ui4jW4CoOzcB-164" source="9uPaZ5e8Ui4jW4CoOzcB-169" target="9uPaZ5e8Ui4jW4CoOzcB-174">
          <mxGeometry width="50" height="50" relative="1" as="geometry">
            <mxPoint x="-11.818181818181817" y="43.21114176849297" as="sourcePoint" />
            <mxPoint x="-41.36363636363636" y="70.21810537380108" as="targetPoint" />
          </mxGeometry>
        </mxCell>
        <mxCell id="9uPaZ5e8Ui4jW4CoOzcB-183" value="" style="endArrow=none;html=1;rounded=0;exitX=1;exitY=0.5;exitDx=0;exitDy=0;entryX=0;entryY=0.5;entryDx=0;entryDy=0;" edge="1" parent="9uPaZ5e8Ui4jW4CoOzcB-164" source="9uPaZ5e8Ui4jW4CoOzcB-169" target="9uPaZ5e8Ui4jW4CoOzcB-173">
          <mxGeometry width="50" height="50" relative="1" as="geometry">
            <mxPoint x="-11.818181818181817" y="43.21114176849297" as="sourcePoint" />
            <mxPoint x="-41.36363636363636" y="70.21810537380108" as="targetPoint" />
          </mxGeometry>
        </mxCell>
        <mxCell id="9uPaZ5e8Ui4jW4CoOzcB-184" value="" style="endArrow=none;html=1;rounded=0;exitX=1;exitY=0.5;exitDx=0;exitDy=0;entryX=0;entryY=0.5;entryDx=0;entryDy=0;" edge="1" parent="9uPaZ5e8Ui4jW4CoOzcB-164" source="9uPaZ5e8Ui4jW4CoOzcB-169" target="9uPaZ5e8Ui4jW4CoOzcB-172">
          <mxGeometry width="50" height="50" relative="1" as="geometry">
            <mxPoint x="-11.818181818181817" y="43.21114176849297" as="sourcePoint" />
            <mxPoint x="-41.36363636363636" y="70.21810537380108" as="targetPoint" />
          </mxGeometry>
        </mxCell>
        <mxCell id="9uPaZ5e8Ui4jW4CoOzcB-185" value="" style="endArrow=none;html=1;rounded=0;exitX=1;exitY=0.5;exitDx=0;exitDy=0;entryX=0;entryY=0.5;entryDx=0;entryDy=0;" edge="1" parent="9uPaZ5e8Ui4jW4CoOzcB-164" source="9uPaZ5e8Ui4jW4CoOzcB-169" target="9uPaZ5e8Ui4jW4CoOzcB-175">
          <mxGeometry width="50" height="50" relative="1" as="geometry">
            <mxPoint x="-11.818181818181817" y="43.21114176849297" as="sourcePoint" />
            <mxPoint x="-41.36363636363636" y="70.21810537380108" as="targetPoint" />
          </mxGeometry>
        </mxCell>
        <mxCell id="9uPaZ5e8Ui4jW4CoOzcB-186" value="" style="endArrow=none;html=1;rounded=0;exitX=1;exitY=0.5;exitDx=0;exitDy=0;entryX=0;entryY=0.5;entryDx=0;entryDy=0;" edge="1" parent="9uPaZ5e8Ui4jW4CoOzcB-164" source="9uPaZ5e8Ui4jW4CoOzcB-168" target="9uPaZ5e8Ui4jW4CoOzcB-171">
          <mxGeometry width="50" height="50" relative="1" as="geometry">
            <mxPoint x="-11.818181818181817" y="43.21114176849297" as="sourcePoint" />
            <mxPoint x="-41.36363636363636" y="70.21810537380108" as="targetPoint" />
          </mxGeometry>
        </mxCell>
        <mxCell id="9uPaZ5e8Ui4jW4CoOzcB-187" value="" style="endArrow=none;html=1;rounded=0;exitX=1;exitY=0.5;exitDx=0;exitDy=0;entryX=0;entryY=0.5;entryDx=0;entryDy=0;" edge="1" parent="9uPaZ5e8Ui4jW4CoOzcB-164" source="9uPaZ5e8Ui4jW4CoOzcB-168" target="9uPaZ5e8Ui4jW4CoOzcB-173">
          <mxGeometry width="50" height="50" relative="1" as="geometry">
            <mxPoint x="-11.818181818181817" y="43.21114176849297" as="sourcePoint" />
            <mxPoint x="-41.36363636363636" y="70.21810537380108" as="targetPoint" />
          </mxGeometry>
        </mxCell>
        <mxCell id="9uPaZ5e8Ui4jW4CoOzcB-188" value="" style="endArrow=none;html=1;rounded=0;exitX=1;exitY=0.5;exitDx=0;exitDy=0;entryX=0;entryY=0.5;entryDx=0;entryDy=0;" edge="1" parent="9uPaZ5e8Ui4jW4CoOzcB-164" source="9uPaZ5e8Ui4jW4CoOzcB-168" target="9uPaZ5e8Ui4jW4CoOzcB-174">
          <mxGeometry width="50" height="50" relative="1" as="geometry">
            <mxPoint x="-11.818181818181817" y="43.21114176849297" as="sourcePoint" />
            <mxPoint x="-41.36363636363636" y="70.21810537380108" as="targetPoint" />
          </mxGeometry>
        </mxCell>
        <mxCell id="9uPaZ5e8Ui4jW4CoOzcB-189" value="" style="endArrow=none;html=1;rounded=0;exitX=1;exitY=0.5;exitDx=0;exitDy=0;entryX=0;entryY=0.5;entryDx=0;entryDy=0;" edge="1" parent="9uPaZ5e8Ui4jW4CoOzcB-164" source="9uPaZ5e8Ui4jW4CoOzcB-168" target="9uPaZ5e8Ui4jW4CoOzcB-172">
          <mxGeometry width="50" height="50" relative="1" as="geometry">
            <mxPoint x="-11.818181818181817" y="43.21114176849297" as="sourcePoint" />
            <mxPoint x="-41.36363636363636" y="70.21810537380108" as="targetPoint" />
          </mxGeometry>
        </mxCell>
        <mxCell id="9uPaZ5e8Ui4jW4CoOzcB-190" value="" style="endArrow=none;html=1;rounded=0;exitX=1;exitY=0.5;exitDx=0;exitDy=0;entryX=0;entryY=0.5;entryDx=0;entryDy=0;" edge="1" parent="9uPaZ5e8Ui4jW4CoOzcB-164" source="9uPaZ5e8Ui4jW4CoOzcB-168" target="9uPaZ5e8Ui4jW4CoOzcB-175">
          <mxGeometry width="50" height="50" relative="1" as="geometry">
            <mxPoint x="-11.818181818181817" y="43.21114176849297" as="sourcePoint" />
            <mxPoint x="-41.36363636363636" y="70.21810537380108" as="targetPoint" />
          </mxGeometry>
        </mxCell>
        <mxCell id="9uPaZ5e8Ui4jW4CoOzcB-191" value="" style="endArrow=none;html=1;rounded=0;exitX=1;exitY=0.5;exitDx=0;exitDy=0;entryX=0;entryY=0.5;entryDx=0;entryDy=0;" edge="1" parent="9uPaZ5e8Ui4jW4CoOzcB-164" source="9uPaZ5e8Ui4jW4CoOzcB-167" target="9uPaZ5e8Ui4jW4CoOzcB-171">
          <mxGeometry width="50" height="50" relative="1" as="geometry">
            <mxPoint x="-11.818181818181817" y="43.21114176849297" as="sourcePoint" />
            <mxPoint x="-41.36363636363636" y="70.21810537380108" as="targetPoint" />
          </mxGeometry>
        </mxCell>
        <mxCell id="9uPaZ5e8Ui4jW4CoOzcB-192" value="" style="endArrow=none;html=1;rounded=0;exitX=1;exitY=0.5;exitDx=0;exitDy=0;entryX=0;entryY=0.5;entryDx=0;entryDy=0;" edge="1" parent="9uPaZ5e8Ui4jW4CoOzcB-164" source="9uPaZ5e8Ui4jW4CoOzcB-167" target="9uPaZ5e8Ui4jW4CoOzcB-174">
          <mxGeometry width="50" height="50" relative="1" as="geometry">
            <mxPoint x="-11.818181818181817" y="43.21114176849297" as="sourcePoint" />
            <mxPoint x="-41.36363636363636" y="70.21810537380108" as="targetPoint" />
          </mxGeometry>
        </mxCell>
        <mxCell id="9uPaZ5e8Ui4jW4CoOzcB-193" value="" style="endArrow=none;html=1;rounded=0;exitX=1;exitY=0.5;exitDx=0;exitDy=0;entryX=0;entryY=0.5;entryDx=0;entryDy=0;" edge="1" parent="9uPaZ5e8Ui4jW4CoOzcB-164" source="9uPaZ5e8Ui4jW4CoOzcB-167" target="9uPaZ5e8Ui4jW4CoOzcB-173">
          <mxGeometry width="50" height="50" relative="1" as="geometry">
            <mxPoint x="-11.818181818181817" y="43.21114176849297" as="sourcePoint" />
            <mxPoint x="-41.36363636363636" y="70.21810537380108" as="targetPoint" />
          </mxGeometry>
        </mxCell>
        <mxCell id="9uPaZ5e8Ui4jW4CoOzcB-194" value="" style="endArrow=none;html=1;rounded=0;exitX=1;exitY=0.5;exitDx=0;exitDy=0;entryX=0;entryY=0.5;entryDx=0;entryDy=0;" edge="1" parent="9uPaZ5e8Ui4jW4CoOzcB-164" source="9uPaZ5e8Ui4jW4CoOzcB-167" target="9uPaZ5e8Ui4jW4CoOzcB-172">
          <mxGeometry width="50" height="50" relative="1" as="geometry">
            <mxPoint x="-11.818181818181817" y="43.21114176849297" as="sourcePoint" />
            <mxPoint x="-41.36363636363636" y="70.21810537380108" as="targetPoint" />
          </mxGeometry>
        </mxCell>
        <mxCell id="9uPaZ5e8Ui4jW4CoOzcB-195" value="" style="endArrow=none;html=1;rounded=0;exitX=1;exitY=0.5;exitDx=0;exitDy=0;entryX=0;entryY=0.5;entryDx=0;entryDy=0;" edge="1" parent="9uPaZ5e8Ui4jW4CoOzcB-164" source="9uPaZ5e8Ui4jW4CoOzcB-167" target="9uPaZ5e8Ui4jW4CoOzcB-175">
          <mxGeometry width="50" height="50" relative="1" as="geometry">
            <mxPoint x="-11.818181818181817" y="43.21114176849297" as="sourcePoint" />
            <mxPoint x="-41.36363636363636" y="70.21810537380108" as="targetPoint" />
          </mxGeometry>
        </mxCell>
        <mxCell id="9uPaZ5e8Ui4jW4CoOzcB-196" value="" style="group" vertex="1" connectable="0" parent="9uPaZ5e8Ui4jW4CoOzcB-157">
          <mxGeometry x="59.09090909090908" y="24.003789252397844" width="23.636363636363633" height="108.02785442123243" as="geometry" />
        </mxCell>
        <mxCell id="9uPaZ5e8Ui4jW4CoOzcB-197" value="" style="ellipse;whiteSpace=wrap;html=1;aspect=fixed;" vertex="1" parent="9uPaZ5e8Ui4jW4CoOzcB-196">
          <mxGeometry width="15.412181637347201" height="15.412181637347201" as="geometry" />
        </mxCell>
        <mxCell id="9uPaZ5e8Ui4jW4CoOzcB-198" value="" style="ellipse;whiteSpace=wrap;html=1;aspect=fixed;" vertex="1" parent="9uPaZ5e8Ui4jW4CoOzcB-196">
          <mxGeometry y="92.59530378962779" width="15.412181637347201" height="15.412181637347201" as="geometry" />
        </mxCell>
        <mxCell id="9uPaZ5e8Ui4jW4CoOzcB-199" value="" style="ellipse;whiteSpace=wrap;html=1;aspect=fixed;" vertex="1" parent="9uPaZ5e8Ui4jW4CoOzcB-196">
          <mxGeometry y="61.73020252641853" width="15.412181637347201" height="15.412181637347201" as="geometry" />
        </mxCell>
        <mxCell id="9uPaZ5e8Ui4jW4CoOzcB-200" value="" style="ellipse;whiteSpace=wrap;html=1;aspect=fixed;" vertex="1" parent="9uPaZ5e8Ui4jW4CoOzcB-196">
          <mxGeometry y="30.865101263209265" width="15.412181637347201" height="15.412181637347201" as="geometry" />
        </mxCell>
        <mxCell id="9uPaZ5e8Ui4jW4CoOzcB-201" value="" style="endArrow=none;html=1;rounded=0;exitX=1;exitY=0.5;exitDx=0;exitDy=0;entryX=0;entryY=0.5;entryDx=0;entryDy=0;" edge="1" parent="9uPaZ5e8Ui4jW4CoOzcB-157" source="9uPaZ5e8Ui4jW4CoOzcB-197" target="9uPaZ5e8Ui4jW4CoOzcB-221">
          <mxGeometry width="50" height="50" relative="1" as="geometry">
            <mxPoint x="147.72727272727272" y="110.42607278938378" as="sourcePoint" />
            <mxPoint x="177.27272727272725" y="83.41910918407568" as="targetPoint" />
          </mxGeometry>
        </mxCell>
        <mxCell id="9uPaZ5e8Ui4jW4CoOzcB-202" value="" style="endArrow=none;html=1;rounded=0;exitX=1;exitY=0.5;exitDx=0;exitDy=0;entryX=0;entryY=0.5;entryDx=0;entryDy=0;" edge="1" parent="9uPaZ5e8Ui4jW4CoOzcB-157" source="9uPaZ5e8Ui4jW4CoOzcB-197" target="9uPaZ5e8Ui4jW4CoOzcB-224">
          <mxGeometry width="50" height="50" relative="1" as="geometry">
            <mxPoint x="147.72727272727272" y="110.42607278938378" as="sourcePoint" />
            <mxPoint x="177.27272727272725" y="83.41910918407568" as="targetPoint" />
          </mxGeometry>
        </mxCell>
        <mxCell id="9uPaZ5e8Ui4jW4CoOzcB-203" value="" style="endArrow=none;html=1;rounded=0;exitX=1;exitY=0.5;exitDx=0;exitDy=0;entryX=0;entryY=0.5;entryDx=0;entryDy=0;" edge="1" parent="9uPaZ5e8Ui4jW4CoOzcB-157" source="9uPaZ5e8Ui4jW4CoOzcB-197" target="9uPaZ5e8Ui4jW4CoOzcB-223">
          <mxGeometry width="50" height="50" relative="1" as="geometry">
            <mxPoint x="147.72727272727272" y="110.42607278938378" as="sourcePoint" />
            <mxPoint x="177.27272727272725" y="83.41910918407568" as="targetPoint" />
          </mxGeometry>
        </mxCell>
        <mxCell id="9uPaZ5e8Ui4jW4CoOzcB-204" value="" style="endArrow=none;html=1;rounded=0;exitX=1;exitY=0.5;exitDx=0;exitDy=0;entryX=0;entryY=0.5;entryDx=0;entryDy=0;" edge="1" parent="9uPaZ5e8Ui4jW4CoOzcB-157" source="9uPaZ5e8Ui4jW4CoOzcB-197" target="9uPaZ5e8Ui4jW4CoOzcB-222">
          <mxGeometry width="50" height="50" relative="1" as="geometry">
            <mxPoint x="159.54545454545453" y="40.20796741558271" as="sourcePoint" />
            <mxPoint x="189.09090909090907" y="13.201003810274601" as="targetPoint" />
          </mxGeometry>
        </mxCell>
        <mxCell id="9uPaZ5e8Ui4jW4CoOzcB-205" value="" style="endArrow=none;html=1;rounded=0;exitX=1;exitY=0.5;exitDx=0;exitDy=0;entryX=0;entryY=0.5;entryDx=0;entryDy=0;" edge="1" parent="9uPaZ5e8Ui4jW4CoOzcB-157" source="9uPaZ5e8Ui4jW4CoOzcB-197" target="9uPaZ5e8Ui4jW4CoOzcB-225">
          <mxGeometry width="50" height="50" relative="1" as="geometry">
            <mxPoint x="147.72727272727272" y="110.42607278938378" as="sourcePoint" />
            <mxPoint x="177.27272727272725" y="83.41910918407568" as="targetPoint" />
          </mxGeometry>
        </mxCell>
        <mxCell id="9uPaZ5e8Ui4jW4CoOzcB-206" value="" style="endArrow=none;html=1;rounded=0;exitX=1;exitY=0.5;exitDx=0;exitDy=0;entryX=0;entryY=0.5;entryDx=0;entryDy=0;" edge="1" parent="9uPaZ5e8Ui4jW4CoOzcB-157" source="9uPaZ5e8Ui4jW4CoOzcB-200" target="9uPaZ5e8Ui4jW4CoOzcB-221">
          <mxGeometry width="50" height="50" relative="1" as="geometry">
            <mxPoint x="147.72727272727272" y="110.42607278938378" as="sourcePoint" />
            <mxPoint x="177.27272727272725" y="83.41910918407568" as="targetPoint" />
          </mxGeometry>
        </mxCell>
        <mxCell id="9uPaZ5e8Ui4jW4CoOzcB-207" value="" style="endArrow=none;html=1;rounded=0;exitX=1;exitY=0.5;exitDx=0;exitDy=0;entryX=0;entryY=0.5;entryDx=0;entryDy=0;" edge="1" parent="9uPaZ5e8Ui4jW4CoOzcB-157" source="9uPaZ5e8Ui4jW4CoOzcB-200" target="9uPaZ5e8Ui4jW4CoOzcB-224">
          <mxGeometry width="50" height="50" relative="1" as="geometry">
            <mxPoint x="147.72727272727272" y="110.42607278938378" as="sourcePoint" />
            <mxPoint x="177.27272727272725" y="83.41910918407568" as="targetPoint" />
          </mxGeometry>
        </mxCell>
        <mxCell id="9uPaZ5e8Ui4jW4CoOzcB-208" value="" style="endArrow=none;html=1;rounded=0;exitX=1;exitY=0.5;exitDx=0;exitDy=0;entryX=0;entryY=0.5;entryDx=0;entryDy=0;" edge="1" parent="9uPaZ5e8Ui4jW4CoOzcB-157" source="9uPaZ5e8Ui4jW4CoOzcB-200" target="9uPaZ5e8Ui4jW4CoOzcB-223">
          <mxGeometry width="50" height="50" relative="1" as="geometry">
            <mxPoint x="147.72727272727272" y="110.42607278938378" as="sourcePoint" />
            <mxPoint x="177.27272727272725" y="83.41910918407568" as="targetPoint" />
          </mxGeometry>
        </mxCell>
        <mxCell id="9uPaZ5e8Ui4jW4CoOzcB-209" value="" style="endArrow=none;html=1;rounded=0;exitX=1;exitY=0.5;exitDx=0;exitDy=0;entryX=0;entryY=0.5;entryDx=0;entryDy=0;" edge="1" parent="9uPaZ5e8Ui4jW4CoOzcB-157" source="9uPaZ5e8Ui4jW4CoOzcB-200" target="9uPaZ5e8Ui4jW4CoOzcB-222">
          <mxGeometry width="50" height="50" relative="1" as="geometry">
            <mxPoint x="147.72727272727272" y="110.42607278938378" as="sourcePoint" />
            <mxPoint x="177.27272727272725" y="83.41910918407568" as="targetPoint" />
          </mxGeometry>
        </mxCell>
        <mxCell id="9uPaZ5e8Ui4jW4CoOzcB-210" value="" style="endArrow=none;html=1;rounded=0;exitX=1;exitY=0.5;exitDx=0;exitDy=0;entryX=0;entryY=0.5;entryDx=0;entryDy=0;" edge="1" parent="9uPaZ5e8Ui4jW4CoOzcB-157" source="9uPaZ5e8Ui4jW4CoOzcB-200" target="9uPaZ5e8Ui4jW4CoOzcB-225">
          <mxGeometry width="50" height="50" relative="1" as="geometry">
            <mxPoint x="147.72727272727272" y="110.42607278938378" as="sourcePoint" />
            <mxPoint x="177.27272727272725" y="83.41910918407568" as="targetPoint" />
          </mxGeometry>
        </mxCell>
        <mxCell id="9uPaZ5e8Ui4jW4CoOzcB-211" value="" style="endArrow=none;html=1;rounded=0;exitX=1;exitY=0.5;exitDx=0;exitDy=0;entryX=0;entryY=0.5;entryDx=0;entryDy=0;" edge="1" parent="9uPaZ5e8Ui4jW4CoOzcB-157" source="9uPaZ5e8Ui4jW4CoOzcB-199" target="9uPaZ5e8Ui4jW4CoOzcB-221">
          <mxGeometry width="50" height="50" relative="1" as="geometry">
            <mxPoint x="147.72727272727272" y="110.42607278938378" as="sourcePoint" />
            <mxPoint x="177.27272727272725" y="83.41910918407568" as="targetPoint" />
          </mxGeometry>
        </mxCell>
        <mxCell id="9uPaZ5e8Ui4jW4CoOzcB-212" value="" style="endArrow=none;html=1;rounded=0;exitX=1;exitY=0.5;exitDx=0;exitDy=0;entryX=0;entryY=0.5;entryDx=0;entryDy=0;" edge="1" parent="9uPaZ5e8Ui4jW4CoOzcB-157" source="9uPaZ5e8Ui4jW4CoOzcB-199" target="9uPaZ5e8Ui4jW4CoOzcB-223">
          <mxGeometry width="50" height="50" relative="1" as="geometry">
            <mxPoint x="147.72727272727272" y="110.42607278938378" as="sourcePoint" />
            <mxPoint x="177.27272727272725" y="83.41910918407568" as="targetPoint" />
          </mxGeometry>
        </mxCell>
        <mxCell id="9uPaZ5e8Ui4jW4CoOzcB-213" value="" style="endArrow=none;html=1;rounded=0;exitX=1;exitY=0.5;exitDx=0;exitDy=0;entryX=0;entryY=0.5;entryDx=0;entryDy=0;" edge="1" parent="9uPaZ5e8Ui4jW4CoOzcB-157" source="9uPaZ5e8Ui4jW4CoOzcB-199" target="9uPaZ5e8Ui4jW4CoOzcB-224">
          <mxGeometry width="50" height="50" relative="1" as="geometry">
            <mxPoint x="147.72727272727272" y="110.42607278938378" as="sourcePoint" />
            <mxPoint x="177.27272727272725" y="83.41910918407568" as="targetPoint" />
          </mxGeometry>
        </mxCell>
        <mxCell id="9uPaZ5e8Ui4jW4CoOzcB-214" value="" style="endArrow=none;html=1;rounded=0;exitX=1;exitY=0.5;exitDx=0;exitDy=0;entryX=0;entryY=0.5;entryDx=0;entryDy=0;" edge="1" parent="9uPaZ5e8Ui4jW4CoOzcB-157" source="9uPaZ5e8Ui4jW4CoOzcB-199" target="9uPaZ5e8Ui4jW4CoOzcB-222">
          <mxGeometry width="50" height="50" relative="1" as="geometry">
            <mxPoint x="147.72727272727272" y="110.42607278938378" as="sourcePoint" />
            <mxPoint x="177.27272727272725" y="83.41910918407568" as="targetPoint" />
          </mxGeometry>
        </mxCell>
        <mxCell id="9uPaZ5e8Ui4jW4CoOzcB-215" value="" style="endArrow=none;html=1;rounded=0;exitX=1;exitY=0.5;exitDx=0;exitDy=0;entryX=0;entryY=0.5;entryDx=0;entryDy=0;" edge="1" parent="9uPaZ5e8Ui4jW4CoOzcB-157" source="9uPaZ5e8Ui4jW4CoOzcB-199" target="9uPaZ5e8Ui4jW4CoOzcB-225">
          <mxGeometry width="50" height="50" relative="1" as="geometry">
            <mxPoint x="147.72727272727272" y="110.42607278938378" as="sourcePoint" />
            <mxPoint x="177.27272727272725" y="83.41910918407568" as="targetPoint" />
          </mxGeometry>
        </mxCell>
        <mxCell id="9uPaZ5e8Ui4jW4CoOzcB-216" value="" style="endArrow=none;html=1;rounded=0;exitX=1;exitY=0.5;exitDx=0;exitDy=0;entryX=0;entryY=0.5;entryDx=0;entryDy=0;" edge="1" parent="9uPaZ5e8Ui4jW4CoOzcB-157" source="9uPaZ5e8Ui4jW4CoOzcB-198" target="9uPaZ5e8Ui4jW4CoOzcB-221">
          <mxGeometry width="50" height="50" relative="1" as="geometry">
            <mxPoint x="147.72727272727272" y="110.42607278938378" as="sourcePoint" />
            <mxPoint x="177.27272727272725" y="83.41910918407568" as="targetPoint" />
          </mxGeometry>
        </mxCell>
        <mxCell id="9uPaZ5e8Ui4jW4CoOzcB-217" value="" style="endArrow=none;html=1;rounded=0;exitX=1;exitY=0.5;exitDx=0;exitDy=0;entryX=0;entryY=0.5;entryDx=0;entryDy=0;" edge="1" parent="9uPaZ5e8Ui4jW4CoOzcB-157" source="9uPaZ5e8Ui4jW4CoOzcB-198" target="9uPaZ5e8Ui4jW4CoOzcB-224">
          <mxGeometry width="50" height="50" relative="1" as="geometry">
            <mxPoint x="147.72727272727272" y="110.42607278938378" as="sourcePoint" />
            <mxPoint x="177.27272727272725" y="83.41910918407568" as="targetPoint" />
          </mxGeometry>
        </mxCell>
        <mxCell id="9uPaZ5e8Ui4jW4CoOzcB-218" value="" style="endArrow=none;html=1;rounded=0;exitX=1;exitY=0.5;exitDx=0;exitDy=0;entryX=0;entryY=0.5;entryDx=0;entryDy=0;" edge="1" parent="9uPaZ5e8Ui4jW4CoOzcB-157" source="9uPaZ5e8Ui4jW4CoOzcB-198" target="9uPaZ5e8Ui4jW4CoOzcB-223">
          <mxGeometry width="50" height="50" relative="1" as="geometry">
            <mxPoint x="147.72727272727272" y="110.42607278938378" as="sourcePoint" />
            <mxPoint x="177.27272727272725" y="83.41910918407568" as="targetPoint" />
          </mxGeometry>
        </mxCell>
        <mxCell id="9uPaZ5e8Ui4jW4CoOzcB-219" value="" style="endArrow=none;html=1;rounded=0;exitX=1;exitY=0.5;exitDx=0;exitDy=0;entryX=0;entryY=0.5;entryDx=0;entryDy=0;" edge="1" parent="9uPaZ5e8Ui4jW4CoOzcB-157" source="9uPaZ5e8Ui4jW4CoOzcB-198" target="9uPaZ5e8Ui4jW4CoOzcB-222">
          <mxGeometry width="50" height="50" relative="1" as="geometry">
            <mxPoint x="147.72727272727272" y="110.42607278938378" as="sourcePoint" />
            <mxPoint x="177.27272727272725" y="83.41910918407568" as="targetPoint" />
          </mxGeometry>
        </mxCell>
        <mxCell id="9uPaZ5e8Ui4jW4CoOzcB-220" value="" style="endArrow=none;html=1;rounded=0;exitX=1;exitY=0.5;exitDx=0;exitDy=0;entryX=0;entryY=0.5;entryDx=0;entryDy=0;" edge="1" parent="9uPaZ5e8Ui4jW4CoOzcB-157" source="9uPaZ5e8Ui4jW4CoOzcB-198" target="9uPaZ5e8Ui4jW4CoOzcB-225">
          <mxGeometry width="50" height="50" relative="1" as="geometry">
            <mxPoint x="147.72727272727272" y="110.42607278938378" as="sourcePoint" />
            <mxPoint x="177.27272727272725" y="83.41910918407568" as="targetPoint" />
          </mxGeometry>
        </mxCell>
        <mxCell id="9uPaZ5e8Ui4jW4CoOzcB-221" value="" style="ellipse;whiteSpace=wrap;html=1;aspect=fixed;" vertex="1" parent="9uPaZ5e8Ui4jW4CoOzcB-157">
          <mxGeometry x="112.27272727272727" y="2.3982183681513587" width="14.384702861524053" height="14.384702861524053" as="geometry" />
        </mxCell>
        <mxCell id="9uPaZ5e8Ui4jW4CoOzcB-222" value="" style="ellipse;whiteSpace=wrap;html=1;aspect=fixed;" vertex="1" parent="9uPaZ5e8Ui4jW4CoOzcB-157">
          <mxGeometry x="112.27272727272727" y="103.22421582796827" width="14.384702861524053" height="14.384702861524053" as="geometry" />
        </mxCell>
        <mxCell id="9uPaZ5e8Ui4jW4CoOzcB-223" value="" style="ellipse;whiteSpace=wrap;html=1;aspect=fixed;" vertex="1" parent="9uPaZ5e8Ui4jW4CoOzcB-157">
          <mxGeometry x="112.27272727272727" y="69.61555000802933" width="14.384702861524053" height="14.384702861524053" as="geometry" />
        </mxCell>
        <mxCell id="9uPaZ5e8Ui4jW4CoOzcB-224" value="" style="ellipse;whiteSpace=wrap;html=1;aspect=fixed;" vertex="1" parent="9uPaZ5e8Ui4jW4CoOzcB-157">
          <mxGeometry x="112.27272727272727" y="36.00688418809034" width="14.384702861524053" height="14.384702861524053" as="geometry" />
        </mxCell>
        <mxCell id="9uPaZ5e8Ui4jW4CoOzcB-225" value="" style="ellipse;whiteSpace=wrap;html=1;aspect=fixed;" vertex="1" parent="9uPaZ5e8Ui4jW4CoOzcB-157">
          <mxGeometry x="112.27272727272727" y="136.83288164790727" width="14.384702861524053" height="14.384702861524053" as="geometry" />
        </mxCell>
        <mxCell id="9uPaZ5e8Ui4jW4CoOzcB-226" value="" style="endArrow=none;dashed=1;html=1;dashPattern=1 3;strokeWidth=2;rounded=0;exitX=1;exitY=0.5;exitDx=0;exitDy=0;entryX=1;entryY=0.5;entryDx=0;entryDy=0;" edge="1" parent="9uPaZ5e8Ui4jW4CoOzcB-157" source="9uPaZ5e8Ui4jW4CoOzcB-221" target="9uPaZ5e8Ui4jW4CoOzcB-175">
          <mxGeometry width="50" height="50" relative="1" as="geometry">
            <mxPoint x="147.72727272727272" y="110.42607278938378" as="sourcePoint" />
            <mxPoint x="177.27272727272725" y="83.41910918407568" as="targetPoint" />
          </mxGeometry>
        </mxCell>
        <mxCell id="9uPaZ5e8Ui4jW4CoOzcB-227" value="" style="endArrow=none;dashed=1;html=1;dashPattern=1 3;strokeWidth=2;rounded=0;exitX=1;exitY=0.5;exitDx=0;exitDy=0;entryX=1;entryY=0.5;entryDx=0;entryDy=0;" edge="1" parent="9uPaZ5e8Ui4jW4CoOzcB-157" source="9uPaZ5e8Ui4jW4CoOzcB-224" target="9uPaZ5e8Ui4jW4CoOzcB-172">
          <mxGeometry width="50" height="50" relative="1" as="geometry">
            <mxPoint x="133.9393939393914" y="15.001468050628466" as="sourcePoint" />
            <mxPoint x="184.3636363636389" y="14.763806770901756" as="targetPoint" />
          </mxGeometry>
        </mxCell>
        <mxCell id="9uPaZ5e8Ui4jW4CoOzcB-228" value="" style="endArrow=none;dashed=1;html=1;dashPattern=1 3;strokeWidth=2;rounded=0;exitX=1;exitY=0.5;exitDx=0;exitDy=0;entryX=1;entryY=0.5;entryDx=0;entryDy=0;" edge="1" parent="9uPaZ5e8Ui4jW4CoOzcB-157" source="9uPaZ5e8Ui4jW4CoOzcB-223" target="9uPaZ5e8Ui4jW4CoOzcB-173">
          <mxGeometry width="50" height="50" relative="1" as="geometry">
            <mxPoint x="133.9393939393914" y="48.61013387056745" as="sourcePoint" />
            <mxPoint x="184.3636363636389" y="48.79258091358997" as="targetPoint" />
          </mxGeometry>
        </mxCell>
        <mxCell id="9uPaZ5e8Ui4jW4CoOzcB-229" value="" style="endArrow=none;dashed=1;html=1;dashPattern=1 3;strokeWidth=2;rounded=0;exitX=1;exitY=0.5;exitDx=0;exitDy=0;entryX=1;entryY=0.5;entryDx=0;entryDy=0;" edge="1" parent="9uPaZ5e8Ui4jW4CoOzcB-157" source="9uPaZ5e8Ui4jW4CoOzcB-222" target="9uPaZ5e8Ui4jW4CoOzcB-174">
          <mxGeometry width="50" height="50" relative="1" as="geometry">
            <mxPoint x="133.9393939393914" y="82.21879969050646" as="sourcePoint" />
            <mxPoint x="184.3636363636389" y="82.28121578417202" as="targetPoint" />
          </mxGeometry>
        </mxCell>
        <mxCell id="9uPaZ5e8Ui4jW4CoOzcB-230" value="" style="endArrow=none;dashed=1;html=1;dashPattern=1 3;strokeWidth=2;rounded=0;exitX=1;exitY=0.5;exitDx=0;exitDy=0;entryX=1;entryY=0.5;entryDx=0;entryDy=0;" edge="1" parent="9uPaZ5e8Ui4jW4CoOzcB-157" source="9uPaZ5e8Ui4jW4CoOzcB-225" target="9uPaZ5e8Ui4jW4CoOzcB-171">
          <mxGeometry width="50" height="50" relative="1" as="geometry">
            <mxPoint x="133.9393939393914" y="115.8274655104454" as="sourcePoint" />
            <mxPoint x="184.3636363636389" y="115.76985065475407" as="targetPoint" />
          </mxGeometry>
        </mxCell>
        <mxCell id="9uPaZ5e8Ui4jW4CoOzcB-231" value="" style="group" vertex="1" connectable="0" parent="1">
          <mxGeometry x="80" y="530" width="260" height="164.44" as="geometry" />
        </mxCell>
        <mxCell id="9uPaZ5e8Ui4jW4CoOzcB-232" value="" style="rounded=0;whiteSpace=wrap;html=1;fillColor=none;strokeColor=#CCE5FF;strokeWidth=6;" vertex="1" parent="9uPaZ5e8Ui4jW4CoOzcB-231">
          <mxGeometry y="2.3982183681513587" width="260" height="162.04178163184866" as="geometry" />
        </mxCell>
        <mxCell id="9uPaZ5e8Ui4jW4CoOzcB-233" value="xk" style="ellipse;whiteSpace=wrap;html=1;aspect=fixed;" vertex="1" parent="9uPaZ5e8Ui4jW4CoOzcB-231">
          <mxGeometry x="5.909090909090908" y="67.21493102089082" width="21.57705429228608" height="21.57705429228608" as="geometry" />
        </mxCell>
        <mxCell id="9uPaZ5e8Ui4jW4CoOzcB-234" value="" style="endArrow=none;html=1;rounded=0;exitX=1;exitY=0.5;exitDx=0;exitDy=0;entryX=0;entryY=0.5;entryDx=0;entryDy=0;" edge="1" parent="9uPaZ5e8Ui4jW4CoOzcB-231" source="9uPaZ5e8Ui4jW4CoOzcB-233" target="9uPaZ5e8Ui4jW4CoOzcB-271">
          <mxGeometry width="50" height="50" relative="1" as="geometry">
            <mxPoint x="147.72727272727272" y="110.42607278938378" as="sourcePoint" />
            <mxPoint x="177.27272727272725" y="83.41910918407568" as="targetPoint" />
          </mxGeometry>
        </mxCell>
        <mxCell id="9uPaZ5e8Ui4jW4CoOzcB-235" value="" style="endArrow=none;html=1;rounded=0;exitX=1;exitY=0.5;exitDx=0;exitDy=0;entryX=0;entryY=0.5;entryDx=0;entryDy=0;" edge="1" parent="9uPaZ5e8Ui4jW4CoOzcB-231" source="9uPaZ5e8Ui4jW4CoOzcB-233" target="9uPaZ5e8Ui4jW4CoOzcB-274">
          <mxGeometry width="50" height="50" relative="1" as="geometry">
            <mxPoint x="147.72727272727272" y="110.42607278938378" as="sourcePoint" />
            <mxPoint x="177.27272727272725" y="83.41910918407568" as="targetPoint" />
          </mxGeometry>
        </mxCell>
        <mxCell id="9uPaZ5e8Ui4jW4CoOzcB-236" value="" style="endArrow=none;html=1;rounded=0;exitX=1;exitY=0.5;exitDx=0;exitDy=0;entryX=0;entryY=0.5;entryDx=0;entryDy=0;" edge="1" parent="9uPaZ5e8Ui4jW4CoOzcB-231" source="9uPaZ5e8Ui4jW4CoOzcB-233" target="9uPaZ5e8Ui4jW4CoOzcB-273">
          <mxGeometry width="50" height="50" relative="1" as="geometry">
            <mxPoint x="147.72727272727272" y="110.42607278938378" as="sourcePoint" />
            <mxPoint x="177.27272727272725" y="83.41910918407568" as="targetPoint" />
          </mxGeometry>
        </mxCell>
        <mxCell id="9uPaZ5e8Ui4jW4CoOzcB-237" value="" style="endArrow=none;html=1;rounded=0;exitX=1;exitY=0.5;exitDx=0;exitDy=0;entryX=0;entryY=0.5;entryDx=0;entryDy=0;" edge="1" parent="9uPaZ5e8Ui4jW4CoOzcB-231" source="9uPaZ5e8Ui4jW4CoOzcB-233" target="9uPaZ5e8Ui4jW4CoOzcB-272">
          <mxGeometry width="50" height="50" relative="1" as="geometry">
            <mxPoint x="147.72727272727272" y="110.42607278938378" as="sourcePoint" />
            <mxPoint x="177.27272727272725" y="83.41910918407568" as="targetPoint" />
          </mxGeometry>
        </mxCell>
        <mxCell id="9uPaZ5e8Ui4jW4CoOzcB-238" value="" style="group;flipH=0;direction=east;rotation=-180;" vertex="1" connectable="0" parent="9uPaZ5e8Ui4jW4CoOzcB-231">
          <mxGeometry x="170.77272727272725" width="76.81818181818181" height="151.2389961897254" as="geometry" />
        </mxCell>
        <mxCell id="9uPaZ5e8Ui4jW4CoOzcB-239" value="" style="group;rotation=-180;" vertex="1" connectable="0" parent="9uPaZ5e8Ui4jW4CoOzcB-238">
          <mxGeometry x="53.18181818181818" y="21.605570884246486" width="23.636363636363633" height="108.02785442123243" as="geometry" />
        </mxCell>
        <mxCell id="9uPaZ5e8Ui4jW4CoOzcB-240" value="" style="ellipse;whiteSpace=wrap;html=1;aspect=fixed;rotation=-180;" vertex="1" parent="9uPaZ5e8Ui4jW4CoOzcB-239">
          <mxGeometry x="6.5" y="92.36381553015373" width="15.412181637347201" height="15.412181637347201" as="geometry" />
        </mxCell>
        <mxCell id="9uPaZ5e8Ui4jW4CoOzcB-241" value="" style="ellipse;whiteSpace=wrap;html=1;aspect=fixed;rotation=-180;" vertex="1" parent="9uPaZ5e8Ui4jW4CoOzcB-239">
          <mxGeometry x="6.5" width="15.412181637347201" height="15.412181637347201" as="geometry" />
        </mxCell>
        <mxCell id="9uPaZ5e8Ui4jW4CoOzcB-242" value="" style="ellipse;whiteSpace=wrap;html=1;aspect=fixed;rotation=-180;" vertex="1" parent="9uPaZ5e8Ui4jW4CoOzcB-239">
          <mxGeometry x="6.5" y="30.78793851005124" width="15.412181637347201" height="15.412181637347201" as="geometry" />
        </mxCell>
        <mxCell id="9uPaZ5e8Ui4jW4CoOzcB-243" value="" style="ellipse;whiteSpace=wrap;html=1;aspect=fixed;rotation=-180;" vertex="1" parent="9uPaZ5e8Ui4jW4CoOzcB-239">
          <mxGeometry x="6.5" y="61.57587702010248" width="15.412181637347201" height="15.412181637347201" as="geometry" />
        </mxCell>
        <mxCell id="9uPaZ5e8Ui4jW4CoOzcB-244" value="" style="group;rotation=-180;" vertex="1" connectable="0" parent="9uPaZ5e8Ui4jW4CoOzcB-238">
          <mxGeometry width="23.636363636363633" height="151.2389961897254" as="geometry" />
        </mxCell>
        <mxCell id="9uPaZ5e8Ui4jW4CoOzcB-245" value="" style="ellipse;whiteSpace=wrap;html=1;aspect=fixed;rotation=-180;" vertex="1" parent="9uPaZ5e8Ui4jW4CoOzcB-244">
          <mxGeometry x="7.681818181818181" y="136.65523584285904" width="14.384702861524053" height="14.384702861524053" as="geometry" />
        </mxCell>
        <mxCell id="9uPaZ5e8Ui4jW4CoOzcB-246" value="" style="ellipse;whiteSpace=wrap;html=1;aspect=fixed;rotation=-180;" vertex="1" parent="9uPaZ5e8Ui4jW4CoOzcB-244">
          <mxGeometry x="7.681818181818181" y="36.18933123111286" width="14.384702861524053" height="14.384702861524053" as="geometry" />
        </mxCell>
        <mxCell id="9uPaZ5e8Ui4jW4CoOzcB-247" value="" style="ellipse;whiteSpace=wrap;html=1;aspect=fixed;rotation=-180;" vertex="1" parent="9uPaZ5e8Ui4jW4CoOzcB-244">
          <mxGeometry x="7.681818181818181" y="69.67796610169492" width="14.384702861524053" height="14.384702861524053" as="geometry" />
        </mxCell>
        <mxCell id="9uPaZ5e8Ui4jW4CoOzcB-248" value="" style="ellipse;whiteSpace=wrap;html=1;aspect=fixed;rotation=-180;" vertex="1" parent="9uPaZ5e8Ui4jW4CoOzcB-244">
          <mxGeometry x="7.681818181818181" y="103.16660097227697" width="14.384702861524053" height="14.384702861524053" as="geometry" />
        </mxCell>
        <mxCell id="9uPaZ5e8Ui4jW4CoOzcB-249" value="" style="ellipse;whiteSpace=wrap;html=1;aspect=fixed;rotation=-180;" vertex="1" parent="9uPaZ5e8Ui4jW4CoOzcB-244">
          <mxGeometry x="7.681818181818181" y="2.1605570884246488" width="14.384702861524053" height="14.384702861524053" as="geometry" />
        </mxCell>
        <mxCell id="9uPaZ5e8Ui4jW4CoOzcB-250" value="" style="endArrow=none;html=1;rounded=0;exitX=1;exitY=0.5;exitDx=0;exitDy=0;entryX=0;entryY=0.5;entryDx=0;entryDy=0;" edge="1" parent="9uPaZ5e8Ui4jW4CoOzcB-238" source="9uPaZ5e8Ui4jW4CoOzcB-240" target="9uPaZ5e8Ui4jW4CoOzcB-245">
          <mxGeometry width="50" height="50" relative="1" as="geometry">
            <mxPoint x="-11.818181818181817" y="43.21114176849297" as="sourcePoint" />
            <mxPoint x="-41.36363636363636" y="70.21810537380108" as="targetPoint" />
          </mxGeometry>
        </mxCell>
        <mxCell id="9uPaZ5e8Ui4jW4CoOzcB-251" value="" style="endArrow=none;html=1;rounded=0;exitX=1;exitY=0.5;exitDx=0;exitDy=0;entryX=0;entryY=0.5;entryDx=0;entryDy=0;" edge="1" parent="9uPaZ5e8Ui4jW4CoOzcB-238" source="9uPaZ5e8Ui4jW4CoOzcB-240" target="9uPaZ5e8Ui4jW4CoOzcB-248">
          <mxGeometry width="50" height="50" relative="1" as="geometry">
            <mxPoint x="-11.818181818181817" y="43.21114176849297" as="sourcePoint" />
            <mxPoint x="-41.36363636363636" y="70.21810537380108" as="targetPoint" />
          </mxGeometry>
        </mxCell>
        <mxCell id="9uPaZ5e8Ui4jW4CoOzcB-252" value="" style="endArrow=none;html=1;rounded=0;exitX=1;exitY=0.5;exitDx=0;exitDy=0;entryX=0;entryY=0.5;entryDx=0;entryDy=0;" edge="1" parent="9uPaZ5e8Ui4jW4CoOzcB-238" source="9uPaZ5e8Ui4jW4CoOzcB-240" target="9uPaZ5e8Ui4jW4CoOzcB-247">
          <mxGeometry width="50" height="50" relative="1" as="geometry">
            <mxPoint x="-11.818181818181817" y="43.21114176849297" as="sourcePoint" />
            <mxPoint x="-41.36363636363636" y="70.21810537380108" as="targetPoint" />
          </mxGeometry>
        </mxCell>
        <mxCell id="9uPaZ5e8Ui4jW4CoOzcB-253" value="" style="endArrow=none;html=1;rounded=0;exitX=1;exitY=0.5;exitDx=0;exitDy=0;entryX=0;entryY=0.5;entryDx=0;entryDy=0;" edge="1" parent="9uPaZ5e8Ui4jW4CoOzcB-238" source="9uPaZ5e8Ui4jW4CoOzcB-240" target="9uPaZ5e8Ui4jW4CoOzcB-246">
          <mxGeometry width="50" height="50" relative="1" as="geometry">
            <mxPoint x="-23.636363636363633" y="113.42924714229405" as="sourcePoint" />
            <mxPoint x="-53.18181818181818" y="140.43621074760216" as="targetPoint" />
          </mxGeometry>
        </mxCell>
        <mxCell id="9uPaZ5e8Ui4jW4CoOzcB-254" value="" style="endArrow=none;html=1;rounded=0;exitX=1;exitY=0.5;exitDx=0;exitDy=0;entryX=0;entryY=0.5;entryDx=0;entryDy=0;" edge="1" parent="9uPaZ5e8Ui4jW4CoOzcB-238" source="9uPaZ5e8Ui4jW4CoOzcB-240" target="9uPaZ5e8Ui4jW4CoOzcB-249">
          <mxGeometry width="50" height="50" relative="1" as="geometry">
            <mxPoint x="-11.818181818181817" y="43.21114176849297" as="sourcePoint" />
            <mxPoint x="-41.36363636363636" y="70.21810537380108" as="targetPoint" />
          </mxGeometry>
        </mxCell>
        <mxCell id="9uPaZ5e8Ui4jW4CoOzcB-255" value="" style="endArrow=none;html=1;rounded=0;exitX=1;exitY=0.5;exitDx=0;exitDy=0;entryX=0;entryY=0.5;entryDx=0;entryDy=0;" edge="1" parent="9uPaZ5e8Ui4jW4CoOzcB-238" source="9uPaZ5e8Ui4jW4CoOzcB-243" target="9uPaZ5e8Ui4jW4CoOzcB-245">
          <mxGeometry width="50" height="50" relative="1" as="geometry">
            <mxPoint x="-11.818181818181817" y="43.21114176849297" as="sourcePoint" />
            <mxPoint x="-41.36363636363636" y="70.21810537380108" as="targetPoint" />
          </mxGeometry>
        </mxCell>
        <mxCell id="9uPaZ5e8Ui4jW4CoOzcB-256" value="" style="endArrow=none;html=1;rounded=0;exitX=1;exitY=0.5;exitDx=0;exitDy=0;entryX=0;entryY=0.5;entryDx=0;entryDy=0;" edge="1" parent="9uPaZ5e8Ui4jW4CoOzcB-238" source="9uPaZ5e8Ui4jW4CoOzcB-243" target="9uPaZ5e8Ui4jW4CoOzcB-248">
          <mxGeometry width="50" height="50" relative="1" as="geometry">
            <mxPoint x="-11.818181818181817" y="43.21114176849297" as="sourcePoint" />
            <mxPoint x="-41.36363636363636" y="70.21810537380108" as="targetPoint" />
          </mxGeometry>
        </mxCell>
        <mxCell id="9uPaZ5e8Ui4jW4CoOzcB-257" value="" style="endArrow=none;html=1;rounded=0;exitX=1;exitY=0.5;exitDx=0;exitDy=0;entryX=0;entryY=0.5;entryDx=0;entryDy=0;" edge="1" parent="9uPaZ5e8Ui4jW4CoOzcB-238" source="9uPaZ5e8Ui4jW4CoOzcB-243" target="9uPaZ5e8Ui4jW4CoOzcB-247">
          <mxGeometry width="50" height="50" relative="1" as="geometry">
            <mxPoint x="-11.818181818181817" y="43.21114176849297" as="sourcePoint" />
            <mxPoint x="-41.36363636363636" y="70.21810537380108" as="targetPoint" />
          </mxGeometry>
        </mxCell>
        <mxCell id="9uPaZ5e8Ui4jW4CoOzcB-258" value="" style="endArrow=none;html=1;rounded=0;exitX=1;exitY=0.5;exitDx=0;exitDy=0;entryX=0;entryY=0.5;entryDx=0;entryDy=0;" edge="1" parent="9uPaZ5e8Ui4jW4CoOzcB-238" source="9uPaZ5e8Ui4jW4CoOzcB-243" target="9uPaZ5e8Ui4jW4CoOzcB-246">
          <mxGeometry width="50" height="50" relative="1" as="geometry">
            <mxPoint x="-11.818181818181817" y="43.21114176849297" as="sourcePoint" />
            <mxPoint x="-41.36363636363636" y="70.21810537380108" as="targetPoint" />
          </mxGeometry>
        </mxCell>
        <mxCell id="9uPaZ5e8Ui4jW4CoOzcB-259" value="" style="endArrow=none;html=1;rounded=0;exitX=1;exitY=0.5;exitDx=0;exitDy=0;entryX=0;entryY=0.5;entryDx=0;entryDy=0;" edge="1" parent="9uPaZ5e8Ui4jW4CoOzcB-238" source="9uPaZ5e8Ui4jW4CoOzcB-243" target="9uPaZ5e8Ui4jW4CoOzcB-249">
          <mxGeometry width="50" height="50" relative="1" as="geometry">
            <mxPoint x="-11.818181818181817" y="43.21114176849297" as="sourcePoint" />
            <mxPoint x="-41.36363636363636" y="70.21810537380108" as="targetPoint" />
          </mxGeometry>
        </mxCell>
        <mxCell id="9uPaZ5e8Ui4jW4CoOzcB-260" value="" style="endArrow=none;html=1;rounded=0;exitX=1;exitY=0.5;exitDx=0;exitDy=0;entryX=0;entryY=0.5;entryDx=0;entryDy=0;" edge="1" parent="9uPaZ5e8Ui4jW4CoOzcB-238" source="9uPaZ5e8Ui4jW4CoOzcB-242" target="9uPaZ5e8Ui4jW4CoOzcB-245">
          <mxGeometry width="50" height="50" relative="1" as="geometry">
            <mxPoint x="-11.818181818181817" y="43.21114176849297" as="sourcePoint" />
            <mxPoint x="-41.36363636363636" y="70.21810537380108" as="targetPoint" />
          </mxGeometry>
        </mxCell>
        <mxCell id="9uPaZ5e8Ui4jW4CoOzcB-261" value="" style="endArrow=none;html=1;rounded=0;exitX=1;exitY=0.5;exitDx=0;exitDy=0;entryX=0;entryY=0.5;entryDx=0;entryDy=0;" edge="1" parent="9uPaZ5e8Ui4jW4CoOzcB-238" source="9uPaZ5e8Ui4jW4CoOzcB-242" target="9uPaZ5e8Ui4jW4CoOzcB-247">
          <mxGeometry width="50" height="50" relative="1" as="geometry">
            <mxPoint x="-11.818181818181817" y="43.21114176849297" as="sourcePoint" />
            <mxPoint x="-41.36363636363636" y="70.21810537380108" as="targetPoint" />
          </mxGeometry>
        </mxCell>
        <mxCell id="9uPaZ5e8Ui4jW4CoOzcB-262" value="" style="endArrow=none;html=1;rounded=0;exitX=1;exitY=0.5;exitDx=0;exitDy=0;entryX=0;entryY=0.5;entryDx=0;entryDy=0;" edge="1" parent="9uPaZ5e8Ui4jW4CoOzcB-238" source="9uPaZ5e8Ui4jW4CoOzcB-242" target="9uPaZ5e8Ui4jW4CoOzcB-248">
          <mxGeometry width="50" height="50" relative="1" as="geometry">
            <mxPoint x="-11.818181818181817" y="43.21114176849297" as="sourcePoint" />
            <mxPoint x="-41.36363636363636" y="70.21810537380108" as="targetPoint" />
          </mxGeometry>
        </mxCell>
        <mxCell id="9uPaZ5e8Ui4jW4CoOzcB-263" value="" style="endArrow=none;html=1;rounded=0;exitX=1;exitY=0.5;exitDx=0;exitDy=0;entryX=0;entryY=0.5;entryDx=0;entryDy=0;" edge="1" parent="9uPaZ5e8Ui4jW4CoOzcB-238" source="9uPaZ5e8Ui4jW4CoOzcB-242" target="9uPaZ5e8Ui4jW4CoOzcB-246">
          <mxGeometry width="50" height="50" relative="1" as="geometry">
            <mxPoint x="-11.818181818181817" y="43.21114176849297" as="sourcePoint" />
            <mxPoint x="-41.36363636363636" y="70.21810537380108" as="targetPoint" />
          </mxGeometry>
        </mxCell>
        <mxCell id="9uPaZ5e8Ui4jW4CoOzcB-264" value="" style="endArrow=none;html=1;rounded=0;exitX=1;exitY=0.5;exitDx=0;exitDy=0;entryX=0;entryY=0.5;entryDx=0;entryDy=0;" edge="1" parent="9uPaZ5e8Ui4jW4CoOzcB-238" source="9uPaZ5e8Ui4jW4CoOzcB-242" target="9uPaZ5e8Ui4jW4CoOzcB-249">
          <mxGeometry width="50" height="50" relative="1" as="geometry">
            <mxPoint x="-11.818181818181817" y="43.21114176849297" as="sourcePoint" />
            <mxPoint x="-41.36363636363636" y="70.21810537380108" as="targetPoint" />
          </mxGeometry>
        </mxCell>
        <mxCell id="9uPaZ5e8Ui4jW4CoOzcB-265" value="" style="endArrow=none;html=1;rounded=0;exitX=1;exitY=0.5;exitDx=0;exitDy=0;entryX=0;entryY=0.5;entryDx=0;entryDy=0;" edge="1" parent="9uPaZ5e8Ui4jW4CoOzcB-238" source="9uPaZ5e8Ui4jW4CoOzcB-241" target="9uPaZ5e8Ui4jW4CoOzcB-245">
          <mxGeometry width="50" height="50" relative="1" as="geometry">
            <mxPoint x="-11.818181818181817" y="43.21114176849297" as="sourcePoint" />
            <mxPoint x="-41.36363636363636" y="70.21810537380108" as="targetPoint" />
          </mxGeometry>
        </mxCell>
        <mxCell id="9uPaZ5e8Ui4jW4CoOzcB-266" value="" style="endArrow=none;html=1;rounded=0;exitX=1;exitY=0.5;exitDx=0;exitDy=0;entryX=0;entryY=0.5;entryDx=0;entryDy=0;" edge="1" parent="9uPaZ5e8Ui4jW4CoOzcB-238" source="9uPaZ5e8Ui4jW4CoOzcB-241" target="9uPaZ5e8Ui4jW4CoOzcB-248">
          <mxGeometry width="50" height="50" relative="1" as="geometry">
            <mxPoint x="-11.818181818181817" y="43.21114176849297" as="sourcePoint" />
            <mxPoint x="-41.36363636363636" y="70.21810537380108" as="targetPoint" />
          </mxGeometry>
        </mxCell>
        <mxCell id="9uPaZ5e8Ui4jW4CoOzcB-267" value="" style="endArrow=none;html=1;rounded=0;exitX=1;exitY=0.5;exitDx=0;exitDy=0;entryX=0;entryY=0.5;entryDx=0;entryDy=0;" edge="1" parent="9uPaZ5e8Ui4jW4CoOzcB-238" source="9uPaZ5e8Ui4jW4CoOzcB-241" target="9uPaZ5e8Ui4jW4CoOzcB-247">
          <mxGeometry width="50" height="50" relative="1" as="geometry">
            <mxPoint x="-11.818181818181817" y="43.21114176849297" as="sourcePoint" />
            <mxPoint x="-41.36363636363636" y="70.21810537380108" as="targetPoint" />
          </mxGeometry>
        </mxCell>
        <mxCell id="9uPaZ5e8Ui4jW4CoOzcB-268" value="" style="endArrow=none;html=1;rounded=0;exitX=1;exitY=0.5;exitDx=0;exitDy=0;entryX=0;entryY=0.5;entryDx=0;entryDy=0;" edge="1" parent="9uPaZ5e8Ui4jW4CoOzcB-238" source="9uPaZ5e8Ui4jW4CoOzcB-241" target="9uPaZ5e8Ui4jW4CoOzcB-246">
          <mxGeometry width="50" height="50" relative="1" as="geometry">
            <mxPoint x="-11.818181818181817" y="43.21114176849297" as="sourcePoint" />
            <mxPoint x="-41.36363636363636" y="70.21810537380108" as="targetPoint" />
          </mxGeometry>
        </mxCell>
        <mxCell id="9uPaZ5e8Ui4jW4CoOzcB-269" value="" style="endArrow=none;html=1;rounded=0;exitX=1;exitY=0.5;exitDx=0;exitDy=0;entryX=0;entryY=0.5;entryDx=0;entryDy=0;" edge="1" parent="9uPaZ5e8Ui4jW4CoOzcB-238" source="9uPaZ5e8Ui4jW4CoOzcB-241" target="9uPaZ5e8Ui4jW4CoOzcB-249">
          <mxGeometry width="50" height="50" relative="1" as="geometry">
            <mxPoint x="-11.818181818181817" y="43.21114176849297" as="sourcePoint" />
            <mxPoint x="-41.36363636363636" y="70.21810537380108" as="targetPoint" />
          </mxGeometry>
        </mxCell>
        <mxCell id="9uPaZ5e8Ui4jW4CoOzcB-270" value="" style="group" vertex="1" connectable="0" parent="9uPaZ5e8Ui4jW4CoOzcB-231">
          <mxGeometry x="59.09090909090908" y="24.003789252397844" width="23.636363636363633" height="108.02785442123243" as="geometry" />
        </mxCell>
        <mxCell id="9uPaZ5e8Ui4jW4CoOzcB-271" value="" style="ellipse;whiteSpace=wrap;html=1;aspect=fixed;" vertex="1" parent="9uPaZ5e8Ui4jW4CoOzcB-270">
          <mxGeometry width="15.412181637347201" height="15.412181637347201" as="geometry" />
        </mxCell>
        <mxCell id="9uPaZ5e8Ui4jW4CoOzcB-272" value="" style="ellipse;whiteSpace=wrap;html=1;aspect=fixed;" vertex="1" parent="9uPaZ5e8Ui4jW4CoOzcB-270">
          <mxGeometry y="92.59530378962779" width="15.412181637347201" height="15.412181637347201" as="geometry" />
        </mxCell>
        <mxCell id="9uPaZ5e8Ui4jW4CoOzcB-273" value="" style="ellipse;whiteSpace=wrap;html=1;aspect=fixed;" vertex="1" parent="9uPaZ5e8Ui4jW4CoOzcB-270">
          <mxGeometry y="61.73020252641853" width="15.412181637347201" height="15.412181637347201" as="geometry" />
        </mxCell>
        <mxCell id="9uPaZ5e8Ui4jW4CoOzcB-274" value="" style="ellipse;whiteSpace=wrap;html=1;aspect=fixed;" vertex="1" parent="9uPaZ5e8Ui4jW4CoOzcB-270">
          <mxGeometry y="30.865101263209265" width="15.412181637347201" height="15.412181637347201" as="geometry" />
        </mxCell>
        <mxCell id="9uPaZ5e8Ui4jW4CoOzcB-275" value="" style="endArrow=none;html=1;rounded=0;exitX=1;exitY=0.5;exitDx=0;exitDy=0;entryX=0;entryY=0.5;entryDx=0;entryDy=0;" edge="1" parent="9uPaZ5e8Ui4jW4CoOzcB-231" source="9uPaZ5e8Ui4jW4CoOzcB-271" target="9uPaZ5e8Ui4jW4CoOzcB-295">
          <mxGeometry width="50" height="50" relative="1" as="geometry">
            <mxPoint x="147.72727272727272" y="110.42607278938378" as="sourcePoint" />
            <mxPoint x="177.27272727272725" y="83.41910918407568" as="targetPoint" />
          </mxGeometry>
        </mxCell>
        <mxCell id="9uPaZ5e8Ui4jW4CoOzcB-276" value="" style="endArrow=none;html=1;rounded=0;exitX=1;exitY=0.5;exitDx=0;exitDy=0;entryX=0;entryY=0.5;entryDx=0;entryDy=0;" edge="1" parent="9uPaZ5e8Ui4jW4CoOzcB-231" source="9uPaZ5e8Ui4jW4CoOzcB-271" target="9uPaZ5e8Ui4jW4CoOzcB-298">
          <mxGeometry width="50" height="50" relative="1" as="geometry">
            <mxPoint x="147.72727272727272" y="110.42607278938378" as="sourcePoint" />
            <mxPoint x="177.27272727272725" y="83.41910918407568" as="targetPoint" />
          </mxGeometry>
        </mxCell>
        <mxCell id="9uPaZ5e8Ui4jW4CoOzcB-277" value="" style="endArrow=none;html=1;rounded=0;exitX=1;exitY=0.5;exitDx=0;exitDy=0;entryX=0;entryY=0.5;entryDx=0;entryDy=0;" edge="1" parent="9uPaZ5e8Ui4jW4CoOzcB-231" source="9uPaZ5e8Ui4jW4CoOzcB-271" target="9uPaZ5e8Ui4jW4CoOzcB-297">
          <mxGeometry width="50" height="50" relative="1" as="geometry">
            <mxPoint x="147.72727272727272" y="110.42607278938378" as="sourcePoint" />
            <mxPoint x="177.27272727272725" y="83.41910918407568" as="targetPoint" />
          </mxGeometry>
        </mxCell>
        <mxCell id="9uPaZ5e8Ui4jW4CoOzcB-278" value="" style="endArrow=none;html=1;rounded=0;exitX=1;exitY=0.5;exitDx=0;exitDy=0;entryX=0;entryY=0.5;entryDx=0;entryDy=0;" edge="1" parent="9uPaZ5e8Ui4jW4CoOzcB-231" source="9uPaZ5e8Ui4jW4CoOzcB-271" target="9uPaZ5e8Ui4jW4CoOzcB-296">
          <mxGeometry width="50" height="50" relative="1" as="geometry">
            <mxPoint x="159.54545454545453" y="40.20796741558271" as="sourcePoint" />
            <mxPoint x="189.09090909090907" y="13.201003810274601" as="targetPoint" />
          </mxGeometry>
        </mxCell>
        <mxCell id="9uPaZ5e8Ui4jW4CoOzcB-279" value="" style="endArrow=none;html=1;rounded=0;exitX=1;exitY=0.5;exitDx=0;exitDy=0;entryX=0;entryY=0.5;entryDx=0;entryDy=0;" edge="1" parent="9uPaZ5e8Ui4jW4CoOzcB-231" source="9uPaZ5e8Ui4jW4CoOzcB-271" target="9uPaZ5e8Ui4jW4CoOzcB-299">
          <mxGeometry width="50" height="50" relative="1" as="geometry">
            <mxPoint x="147.72727272727272" y="110.42607278938378" as="sourcePoint" />
            <mxPoint x="177.27272727272725" y="83.41910918407568" as="targetPoint" />
          </mxGeometry>
        </mxCell>
        <mxCell id="9uPaZ5e8Ui4jW4CoOzcB-280" value="" style="endArrow=none;html=1;rounded=0;exitX=1;exitY=0.5;exitDx=0;exitDy=0;entryX=0;entryY=0.5;entryDx=0;entryDy=0;" edge="1" parent="9uPaZ5e8Ui4jW4CoOzcB-231" source="9uPaZ5e8Ui4jW4CoOzcB-274" target="9uPaZ5e8Ui4jW4CoOzcB-295">
          <mxGeometry width="50" height="50" relative="1" as="geometry">
            <mxPoint x="147.72727272727272" y="110.42607278938378" as="sourcePoint" />
            <mxPoint x="177.27272727272725" y="83.41910918407568" as="targetPoint" />
          </mxGeometry>
        </mxCell>
        <mxCell id="9uPaZ5e8Ui4jW4CoOzcB-281" value="" style="endArrow=none;html=1;rounded=0;exitX=1;exitY=0.5;exitDx=0;exitDy=0;entryX=0;entryY=0.5;entryDx=0;entryDy=0;" edge="1" parent="9uPaZ5e8Ui4jW4CoOzcB-231" source="9uPaZ5e8Ui4jW4CoOzcB-274" target="9uPaZ5e8Ui4jW4CoOzcB-298">
          <mxGeometry width="50" height="50" relative="1" as="geometry">
            <mxPoint x="147.72727272727272" y="110.42607278938378" as="sourcePoint" />
            <mxPoint x="177.27272727272725" y="83.41910918407568" as="targetPoint" />
          </mxGeometry>
        </mxCell>
        <mxCell id="9uPaZ5e8Ui4jW4CoOzcB-282" value="" style="endArrow=none;html=1;rounded=0;exitX=1;exitY=0.5;exitDx=0;exitDy=0;entryX=0;entryY=0.5;entryDx=0;entryDy=0;" edge="1" parent="9uPaZ5e8Ui4jW4CoOzcB-231" source="9uPaZ5e8Ui4jW4CoOzcB-274" target="9uPaZ5e8Ui4jW4CoOzcB-297">
          <mxGeometry width="50" height="50" relative="1" as="geometry">
            <mxPoint x="147.72727272727272" y="110.42607278938378" as="sourcePoint" />
            <mxPoint x="177.27272727272725" y="83.41910918407568" as="targetPoint" />
          </mxGeometry>
        </mxCell>
        <mxCell id="9uPaZ5e8Ui4jW4CoOzcB-283" value="" style="endArrow=none;html=1;rounded=0;exitX=1;exitY=0.5;exitDx=0;exitDy=0;entryX=0;entryY=0.5;entryDx=0;entryDy=0;" edge="1" parent="9uPaZ5e8Ui4jW4CoOzcB-231" source="9uPaZ5e8Ui4jW4CoOzcB-274" target="9uPaZ5e8Ui4jW4CoOzcB-296">
          <mxGeometry width="50" height="50" relative="1" as="geometry">
            <mxPoint x="147.72727272727272" y="110.42607278938378" as="sourcePoint" />
            <mxPoint x="177.27272727272725" y="83.41910918407568" as="targetPoint" />
          </mxGeometry>
        </mxCell>
        <mxCell id="9uPaZ5e8Ui4jW4CoOzcB-284" value="" style="endArrow=none;html=1;rounded=0;exitX=1;exitY=0.5;exitDx=0;exitDy=0;entryX=0;entryY=0.5;entryDx=0;entryDy=0;" edge="1" parent="9uPaZ5e8Ui4jW4CoOzcB-231" source="9uPaZ5e8Ui4jW4CoOzcB-274" target="9uPaZ5e8Ui4jW4CoOzcB-299">
          <mxGeometry width="50" height="50" relative="1" as="geometry">
            <mxPoint x="147.72727272727272" y="110.42607278938378" as="sourcePoint" />
            <mxPoint x="177.27272727272725" y="83.41910918407568" as="targetPoint" />
          </mxGeometry>
        </mxCell>
        <mxCell id="9uPaZ5e8Ui4jW4CoOzcB-285" value="" style="endArrow=none;html=1;rounded=0;exitX=1;exitY=0.5;exitDx=0;exitDy=0;entryX=0;entryY=0.5;entryDx=0;entryDy=0;" edge="1" parent="9uPaZ5e8Ui4jW4CoOzcB-231" source="9uPaZ5e8Ui4jW4CoOzcB-273" target="9uPaZ5e8Ui4jW4CoOzcB-295">
          <mxGeometry width="50" height="50" relative="1" as="geometry">
            <mxPoint x="147.72727272727272" y="110.42607278938378" as="sourcePoint" />
            <mxPoint x="177.27272727272725" y="83.41910918407568" as="targetPoint" />
          </mxGeometry>
        </mxCell>
        <mxCell id="9uPaZ5e8Ui4jW4CoOzcB-286" value="" style="endArrow=none;html=1;rounded=0;exitX=1;exitY=0.5;exitDx=0;exitDy=0;entryX=0;entryY=0.5;entryDx=0;entryDy=0;" edge="1" parent="9uPaZ5e8Ui4jW4CoOzcB-231" source="9uPaZ5e8Ui4jW4CoOzcB-273" target="9uPaZ5e8Ui4jW4CoOzcB-297">
          <mxGeometry width="50" height="50" relative="1" as="geometry">
            <mxPoint x="147.72727272727272" y="110.42607278938378" as="sourcePoint" />
            <mxPoint x="177.27272727272725" y="83.41910918407568" as="targetPoint" />
          </mxGeometry>
        </mxCell>
        <mxCell id="9uPaZ5e8Ui4jW4CoOzcB-287" value="" style="endArrow=none;html=1;rounded=0;exitX=1;exitY=0.5;exitDx=0;exitDy=0;entryX=0;entryY=0.5;entryDx=0;entryDy=0;" edge="1" parent="9uPaZ5e8Ui4jW4CoOzcB-231" source="9uPaZ5e8Ui4jW4CoOzcB-273" target="9uPaZ5e8Ui4jW4CoOzcB-298">
          <mxGeometry width="50" height="50" relative="1" as="geometry">
            <mxPoint x="147.72727272727272" y="110.42607278938378" as="sourcePoint" />
            <mxPoint x="177.27272727272725" y="83.41910918407568" as="targetPoint" />
          </mxGeometry>
        </mxCell>
        <mxCell id="9uPaZ5e8Ui4jW4CoOzcB-288" value="" style="endArrow=none;html=1;rounded=0;exitX=1;exitY=0.5;exitDx=0;exitDy=0;entryX=0;entryY=0.5;entryDx=0;entryDy=0;" edge="1" parent="9uPaZ5e8Ui4jW4CoOzcB-231" source="9uPaZ5e8Ui4jW4CoOzcB-273" target="9uPaZ5e8Ui4jW4CoOzcB-296">
          <mxGeometry width="50" height="50" relative="1" as="geometry">
            <mxPoint x="147.72727272727272" y="110.42607278938378" as="sourcePoint" />
            <mxPoint x="177.27272727272725" y="83.41910918407568" as="targetPoint" />
          </mxGeometry>
        </mxCell>
        <mxCell id="9uPaZ5e8Ui4jW4CoOzcB-289" value="" style="endArrow=none;html=1;rounded=0;exitX=1;exitY=0.5;exitDx=0;exitDy=0;entryX=0;entryY=0.5;entryDx=0;entryDy=0;" edge="1" parent="9uPaZ5e8Ui4jW4CoOzcB-231" source="9uPaZ5e8Ui4jW4CoOzcB-273" target="9uPaZ5e8Ui4jW4CoOzcB-299">
          <mxGeometry width="50" height="50" relative="1" as="geometry">
            <mxPoint x="147.72727272727272" y="110.42607278938378" as="sourcePoint" />
            <mxPoint x="177.27272727272725" y="83.41910918407568" as="targetPoint" />
          </mxGeometry>
        </mxCell>
        <mxCell id="9uPaZ5e8Ui4jW4CoOzcB-290" value="" style="endArrow=none;html=1;rounded=0;exitX=1;exitY=0.5;exitDx=0;exitDy=0;entryX=0;entryY=0.5;entryDx=0;entryDy=0;" edge="1" parent="9uPaZ5e8Ui4jW4CoOzcB-231" source="9uPaZ5e8Ui4jW4CoOzcB-272" target="9uPaZ5e8Ui4jW4CoOzcB-295">
          <mxGeometry width="50" height="50" relative="1" as="geometry">
            <mxPoint x="147.72727272727272" y="110.42607278938378" as="sourcePoint" />
            <mxPoint x="177.27272727272725" y="83.41910918407568" as="targetPoint" />
          </mxGeometry>
        </mxCell>
        <mxCell id="9uPaZ5e8Ui4jW4CoOzcB-291" value="" style="endArrow=none;html=1;rounded=0;exitX=1;exitY=0.5;exitDx=0;exitDy=0;entryX=0;entryY=0.5;entryDx=0;entryDy=0;" edge="1" parent="9uPaZ5e8Ui4jW4CoOzcB-231" source="9uPaZ5e8Ui4jW4CoOzcB-272" target="9uPaZ5e8Ui4jW4CoOzcB-298">
          <mxGeometry width="50" height="50" relative="1" as="geometry">
            <mxPoint x="147.72727272727272" y="110.42607278938378" as="sourcePoint" />
            <mxPoint x="177.27272727272725" y="83.41910918407568" as="targetPoint" />
          </mxGeometry>
        </mxCell>
        <mxCell id="9uPaZ5e8Ui4jW4CoOzcB-292" value="" style="endArrow=none;html=1;rounded=0;exitX=1;exitY=0.5;exitDx=0;exitDy=0;entryX=0;entryY=0.5;entryDx=0;entryDy=0;" edge="1" parent="9uPaZ5e8Ui4jW4CoOzcB-231" source="9uPaZ5e8Ui4jW4CoOzcB-272" target="9uPaZ5e8Ui4jW4CoOzcB-297">
          <mxGeometry width="50" height="50" relative="1" as="geometry">
            <mxPoint x="147.72727272727272" y="110.42607278938378" as="sourcePoint" />
            <mxPoint x="177.27272727272725" y="83.41910918407568" as="targetPoint" />
          </mxGeometry>
        </mxCell>
        <mxCell id="9uPaZ5e8Ui4jW4CoOzcB-293" value="" style="endArrow=none;html=1;rounded=0;exitX=1;exitY=0.5;exitDx=0;exitDy=0;entryX=0;entryY=0.5;entryDx=0;entryDy=0;" edge="1" parent="9uPaZ5e8Ui4jW4CoOzcB-231" source="9uPaZ5e8Ui4jW4CoOzcB-272" target="9uPaZ5e8Ui4jW4CoOzcB-296">
          <mxGeometry width="50" height="50" relative="1" as="geometry">
            <mxPoint x="147.72727272727272" y="110.42607278938378" as="sourcePoint" />
            <mxPoint x="177.27272727272725" y="83.41910918407568" as="targetPoint" />
          </mxGeometry>
        </mxCell>
        <mxCell id="9uPaZ5e8Ui4jW4CoOzcB-294" value="" style="endArrow=none;html=1;rounded=0;exitX=1;exitY=0.5;exitDx=0;exitDy=0;entryX=0;entryY=0.5;entryDx=0;entryDy=0;" edge="1" parent="9uPaZ5e8Ui4jW4CoOzcB-231" source="9uPaZ5e8Ui4jW4CoOzcB-272" target="9uPaZ5e8Ui4jW4CoOzcB-299">
          <mxGeometry width="50" height="50" relative="1" as="geometry">
            <mxPoint x="147.72727272727272" y="110.42607278938378" as="sourcePoint" />
            <mxPoint x="177.27272727272725" y="83.41910918407568" as="targetPoint" />
          </mxGeometry>
        </mxCell>
        <mxCell id="9uPaZ5e8Ui4jW4CoOzcB-295" value="" style="ellipse;whiteSpace=wrap;html=1;aspect=fixed;" vertex="1" parent="9uPaZ5e8Ui4jW4CoOzcB-231">
          <mxGeometry x="112.27272727272727" y="2.3982183681513587" width="14.384702861524053" height="14.384702861524053" as="geometry" />
        </mxCell>
        <mxCell id="9uPaZ5e8Ui4jW4CoOzcB-296" value="" style="ellipse;whiteSpace=wrap;html=1;aspect=fixed;" vertex="1" parent="9uPaZ5e8Ui4jW4CoOzcB-231">
          <mxGeometry x="112.27272727272727" y="103.22421582796827" width="14.384702861524053" height="14.384702861524053" as="geometry" />
        </mxCell>
        <mxCell id="9uPaZ5e8Ui4jW4CoOzcB-297" value="" style="ellipse;whiteSpace=wrap;html=1;aspect=fixed;" vertex="1" parent="9uPaZ5e8Ui4jW4CoOzcB-231">
          <mxGeometry x="112.27272727272727" y="69.61555000802933" width="14.384702861524053" height="14.384702861524053" as="geometry" />
        </mxCell>
        <mxCell id="9uPaZ5e8Ui4jW4CoOzcB-298" value="" style="ellipse;whiteSpace=wrap;html=1;aspect=fixed;" vertex="1" parent="9uPaZ5e8Ui4jW4CoOzcB-231">
          <mxGeometry x="112.27272727272727" y="36.00688418809034" width="14.384702861524053" height="14.384702861524053" as="geometry" />
        </mxCell>
        <mxCell id="9uPaZ5e8Ui4jW4CoOzcB-299" value="" style="ellipse;whiteSpace=wrap;html=1;aspect=fixed;" vertex="1" parent="9uPaZ5e8Ui4jW4CoOzcB-231">
          <mxGeometry x="112.27272727272727" y="136.83288164790727" width="14.384702861524053" height="14.384702861524053" as="geometry" />
        </mxCell>
        <mxCell id="9uPaZ5e8Ui4jW4CoOzcB-300" value="" style="endArrow=none;dashed=1;html=1;dashPattern=1 3;strokeWidth=2;rounded=0;exitX=1;exitY=0.5;exitDx=0;exitDy=0;entryX=1;entryY=0.5;entryDx=0;entryDy=0;" edge="1" parent="9uPaZ5e8Ui4jW4CoOzcB-231" source="9uPaZ5e8Ui4jW4CoOzcB-295" target="9uPaZ5e8Ui4jW4CoOzcB-249">
          <mxGeometry width="50" height="50" relative="1" as="geometry">
            <mxPoint x="147.72727272727272" y="110.42607278938378" as="sourcePoint" />
            <mxPoint x="177.27272727272725" y="83.41910918407568" as="targetPoint" />
          </mxGeometry>
        </mxCell>
        <mxCell id="9uPaZ5e8Ui4jW4CoOzcB-301" value="" style="endArrow=none;dashed=1;html=1;dashPattern=1 3;strokeWidth=2;rounded=0;exitX=1;exitY=0.5;exitDx=0;exitDy=0;entryX=1;entryY=0.5;entryDx=0;entryDy=0;" edge="1" parent="9uPaZ5e8Ui4jW4CoOzcB-231" source="9uPaZ5e8Ui4jW4CoOzcB-298" target="9uPaZ5e8Ui4jW4CoOzcB-246">
          <mxGeometry width="50" height="50" relative="1" as="geometry">
            <mxPoint x="133.9393939393914" y="15.001468050628466" as="sourcePoint" />
            <mxPoint x="184.3636363636389" y="14.763806770901756" as="targetPoint" />
          </mxGeometry>
        </mxCell>
        <mxCell id="9uPaZ5e8Ui4jW4CoOzcB-302" value="" style="endArrow=none;dashed=1;html=1;dashPattern=1 3;strokeWidth=2;rounded=0;exitX=1;exitY=0.5;exitDx=0;exitDy=0;entryX=1;entryY=0.5;entryDx=0;entryDy=0;" edge="1" parent="9uPaZ5e8Ui4jW4CoOzcB-231" source="9uPaZ5e8Ui4jW4CoOzcB-297" target="9uPaZ5e8Ui4jW4CoOzcB-247">
          <mxGeometry width="50" height="50" relative="1" as="geometry">
            <mxPoint x="133.9393939393914" y="48.61013387056745" as="sourcePoint" />
            <mxPoint x="184.3636363636389" y="48.79258091358997" as="targetPoint" />
          </mxGeometry>
        </mxCell>
        <mxCell id="9uPaZ5e8Ui4jW4CoOzcB-303" value="" style="endArrow=none;dashed=1;html=1;dashPattern=1 3;strokeWidth=2;rounded=0;exitX=1;exitY=0.5;exitDx=0;exitDy=0;entryX=1;entryY=0.5;entryDx=0;entryDy=0;" edge="1" parent="9uPaZ5e8Ui4jW4CoOzcB-231" source="9uPaZ5e8Ui4jW4CoOzcB-296" target="9uPaZ5e8Ui4jW4CoOzcB-248">
          <mxGeometry width="50" height="50" relative="1" as="geometry">
            <mxPoint x="133.9393939393914" y="82.21879969050646" as="sourcePoint" />
            <mxPoint x="184.3636363636389" y="82.28121578417202" as="targetPoint" />
          </mxGeometry>
        </mxCell>
        <mxCell id="9uPaZ5e8Ui4jW4CoOzcB-304" value="" style="endArrow=none;dashed=1;html=1;dashPattern=1 3;strokeWidth=2;rounded=0;exitX=1;exitY=0.5;exitDx=0;exitDy=0;entryX=1;entryY=0.5;entryDx=0;entryDy=0;" edge="1" parent="9uPaZ5e8Ui4jW4CoOzcB-231" source="9uPaZ5e8Ui4jW4CoOzcB-299" target="9uPaZ5e8Ui4jW4CoOzcB-245">
          <mxGeometry width="50" height="50" relative="1" as="geometry">
            <mxPoint x="133.9393939393914" y="115.8274655104454" as="sourcePoint" />
            <mxPoint x="184.3636363636389" y="115.76985065475407" as="targetPoint" />
          </mxGeometry>
        </mxCell>
        <mxCell id="9uPaZ5e8Ui4jW4CoOzcB-305" value="" style="ellipse;whiteSpace=wrap;html=1;aspect=fixed;strokeColor=#000000;strokeWidth=1;fillColor=#000000;" vertex="1" parent="1">
          <mxGeometry x="218" y="512" width="3" height="3" as="geometry" />
        </mxCell>
        <mxCell id="9uPaZ5e8Ui4jW4CoOzcB-306" value="" style="ellipse;whiteSpace=wrap;html=1;aspect=fixed;strokeColor=#000000;strokeWidth=1;fillColor=#000000;" vertex="1" parent="1">
          <mxGeometry x="218" y="485" width="3" height="3" as="geometry" />
        </mxCell>
        <mxCell id="9uPaZ5e8Ui4jW4CoOzcB-307" value="" style="ellipse;whiteSpace=wrap;html=1;aspect=fixed;strokeColor=#000000;strokeWidth=1;fillColor=#000000;" vertex="1" parent="1">
          <mxGeometry x="218" y="457" width="3" height="3" as="geometry" />
        </mxCell>
        <mxCell id="9uPaZ5e8Ui4jW4CoOzcB-308" value="" style="ellipse;whiteSpace=wrap;html=1;aspect=fixed;strokeColor=#000000;strokeWidth=1;fillColor=#000000;" vertex="1" parent="1">
          <mxGeometry x="218" y="423" width="3" height="3" as="geometry" />
        </mxCell>
        <mxCell id="9uPaZ5e8Ui4jW4CoOzcB-309" value="&lt;font style=&quot;font-size: 20px&quot;&gt;&lt;b&gt;Sum&lt;/b&gt;&lt;/font&gt;" style="ellipse;whiteSpace=wrap;html=1;aspect=fixed;strokeColor=#000000;strokeWidth=1;fillColor=none;" vertex="1" parent="1">
          <mxGeometry x="500" y="360" width="80" height="80" as="geometry" />
        </mxCell>
        <mxCell id="9uPaZ5e8Ui4jW4CoOzcB-311" value="&lt;br&gt;" style="ellipse;whiteSpace=wrap;html=1;aspect=fixed;" vertex="1" parent="1">
          <mxGeometry x="369.9990909090909" y="599.4349310208909" width="21.57705429228608" height="21.57705429228608" as="geometry" />
        </mxCell>
        <mxCell id="9uPaZ5e8Ui4jW4CoOzcB-312" value="" style="ellipse;whiteSpace=wrap;html=1;aspect=fixed;" vertex="1" parent="1">
          <mxGeometry x="369.9990909090909" y="310.4349310208909" width="21.57705429228608" height="21.57705429228608" as="geometry" />
        </mxCell>
        <mxCell id="9uPaZ5e8Ui4jW4CoOzcB-313" value="&lt;br&gt;" style="ellipse;whiteSpace=wrap;html=1;aspect=fixed;" vertex="1" parent="1">
          <mxGeometry x="369.9990909090909" y="110.43493102089087" width="21.57705429228608" height="21.57705429228608" as="geometry" />
        </mxCell>
        <mxCell id="9uPaZ5e8Ui4jW4CoOzcB-314" value="f2(x2)" style="text;html=1;strokeColor=none;fillColor=none;align=center;verticalAlign=middle;whiteSpace=wrap;rounded=0;fontSize=20;" vertex="1" parent="1">
          <mxGeometry x="90" y="404.44" width="60" height="30" as="geometry" />
        </mxCell>
        <mxCell id="9uPaZ5e8Ui4jW4CoOzcB-315" value="f1(x1)" style="text;html=1;strokeColor=none;fillColor=none;align=center;verticalAlign=middle;whiteSpace=wrap;rounded=0;fontSize=20;" vertex="1" parent="1">
          <mxGeometry x="80" y="204.44" width="60" height="30" as="geometry" />
        </mxCell>
        <mxCell id="9uPaZ5e8Ui4jW4CoOzcB-316" value="fk(xk)" style="text;html=1;strokeColor=none;fillColor=none;align=center;verticalAlign=middle;whiteSpace=wrap;rounded=0;fontSize=20;" vertex="1" parent="1">
          <mxGeometry x="80" y="694.44" width="60" height="30" as="geometry" />
        </mxCell>
        <mxCell id="9uPaZ5e8Ui4jW4CoOzcB-317" value="" style="endArrow=none;html=1;rounded=0;fontSize=20;exitX=0;exitY=0.5;exitDx=0;exitDy=0;entryX=0;entryY=0.5;entryDx=0;entryDy=0;" edge="1" parent="1" source="9uPaZ5e8Ui4jW4CoOzcB-45" target="9uPaZ5e8Ui4jW4CoOzcB-313">
          <mxGeometry width="50" height="50" relative="1" as="geometry">
            <mxPoint x="390" y="140" as="sourcePoint" />
            <mxPoint x="440" y="90" as="targetPoint" />
          </mxGeometry>
        </mxCell>
        <mxCell id="9uPaZ5e8Ui4jW4CoOzcB-318" value="" style="endArrow=none;html=1;rounded=0;fontSize=20;exitX=0;exitY=0.5;exitDx=0;exitDy=0;entryX=0;entryY=0.5;entryDx=0;entryDy=0;" edge="1" parent="1" source="9uPaZ5e8Ui4jW4CoOzcB-46" target="9uPaZ5e8Ui4jW4CoOzcB-313">
          <mxGeometry width="50" height="50" relative="1" as="geometry">
            <mxPoint x="335.8667270918895" y="79.3116617029201" as="sourcePoint" />
            <mxPoint x="379.9990909090858" y="131.22345816703387" as="targetPoint" />
          </mxGeometry>
        </mxCell>
        <mxCell id="9uPaZ5e8Ui4jW4CoOzcB-319" value="" style="endArrow=none;html=1;rounded=0;fontSize=20;exitX=0;exitY=0.5;exitDx=0;exitDy=0;entryX=0;entryY=0.5;entryDx=0;entryDy=0;" edge="1" parent="1" source="9uPaZ5e8Ui4jW4CoOzcB-47" target="9uPaZ5e8Ui4jW4CoOzcB-313">
          <mxGeometry width="50" height="50" relative="1" as="geometry">
            <mxPoint x="335.8667270918895" y="110.09960021297132" as="sourcePoint" />
            <mxPoint x="379.9990909090858" y="131.22345816703387" as="targetPoint" />
          </mxGeometry>
        </mxCell>
        <mxCell id="9uPaZ5e8Ui4jW4CoOzcB-320" value="" style="endArrow=none;html=1;rounded=0;fontSize=20;exitX=0;exitY=0.5;exitDx=0;exitDy=0;entryX=0;entryY=0.5;entryDx=0;entryDy=0;" edge="1" parent="1" source="9uPaZ5e8Ui4jW4CoOzcB-44" target="9uPaZ5e8Ui4jW4CoOzcB-313">
          <mxGeometry width="50" height="50" relative="1" as="geometry">
            <mxPoint x="335.8667270918895" y="140.88753872302254" as="sourcePoint" />
            <mxPoint x="379.9990909090858" y="131.22345816703387" as="targetPoint" />
          </mxGeometry>
        </mxCell>
        <mxCell id="9uPaZ5e8Ui4jW4CoOzcB-321" value="" style="endArrow=none;html=1;rounded=0;fontSize=20;exitX=0;exitY=0.5;exitDx=0;exitDy=0;entryX=0;entryY=0.5;entryDx=0;entryDy=0;" edge="1" parent="1" source="9uPaZ5e8Ui4jW4CoOzcB-167" target="9uPaZ5e8Ui4jW4CoOzcB-312">
          <mxGeometry width="50" height="50" relative="1" as="geometry">
            <mxPoint x="390" y="320" as="sourcePoint" />
            <mxPoint x="440" y="270" as="targetPoint" />
          </mxGeometry>
        </mxCell>
        <mxCell id="9uPaZ5e8Ui4jW4CoOzcB-322" value="" style="endArrow=none;html=1;rounded=0;fontSize=20;exitX=0;exitY=0.5;exitDx=0;exitDy=0;entryX=0;entryY=0.5;entryDx=0;entryDy=0;" edge="1" parent="1" source="9uPaZ5e8Ui4jW4CoOzcB-168" target="9uPaZ5e8Ui4jW4CoOzcB-312">
          <mxGeometry width="50" height="50" relative="1" as="geometry">
            <mxPoint x="335.8667270918895" y="279.3116617029201" as="sourcePoint" />
            <mxPoint x="379.9990909090858" y="331.22345816703387" as="targetPoint" />
          </mxGeometry>
        </mxCell>
        <mxCell id="9uPaZ5e8Ui4jW4CoOzcB-323" value="" style="endArrow=none;html=1;rounded=0;fontSize=20;exitX=0;exitY=0.5;exitDx=0;exitDy=0;entryX=0;entryY=0.5;entryDx=0;entryDy=0;" edge="1" parent="1" source="9uPaZ5e8Ui4jW4CoOzcB-169" target="9uPaZ5e8Ui4jW4CoOzcB-312">
          <mxGeometry width="50" height="50" relative="1" as="geometry">
            <mxPoint x="335.8667270918895" y="310.0996002129713" as="sourcePoint" />
            <mxPoint x="379.9990909090858" y="331.22345816703387" as="targetPoint" />
          </mxGeometry>
        </mxCell>
        <mxCell id="9uPaZ5e8Ui4jW4CoOzcB-324" value="" style="endArrow=none;html=1;rounded=0;fontSize=20;exitX=0;exitY=0.5;exitDx=0;exitDy=0;entryX=0;entryY=0.5;entryDx=0;entryDy=0;" edge="1" parent="1" source="9uPaZ5e8Ui4jW4CoOzcB-166" target="9uPaZ5e8Ui4jW4CoOzcB-312">
          <mxGeometry width="50" height="50" relative="1" as="geometry">
            <mxPoint x="335.8667270918895" y="340.88753872302254" as="sourcePoint" />
            <mxPoint x="379.9990909090858" y="331.22345816703387" as="targetPoint" />
          </mxGeometry>
        </mxCell>
        <mxCell id="9uPaZ5e8Ui4jW4CoOzcB-325" value="" style="endArrow=none;html=1;rounded=0;fontSize=20;exitX=0;exitY=0.5;exitDx=0;exitDy=0;entryX=0;entryY=0.5;entryDx=0;entryDy=0;" edge="1" parent="1" source="9uPaZ5e8Ui4jW4CoOzcB-241" target="9uPaZ5e8Ui4jW4CoOzcB-311">
          <mxGeometry width="50" height="50" relative="1" as="geometry">
            <mxPoint x="330" y="640" as="sourcePoint" />
            <mxPoint x="380" y="590" as="targetPoint" />
          </mxGeometry>
        </mxCell>
        <mxCell id="9uPaZ5e8Ui4jW4CoOzcB-326" value="" style="endArrow=none;html=1;rounded=0;fontSize=20;exitX=0;exitY=0.5;exitDx=0;exitDy=0;entryX=0;entryY=0.5;entryDx=0;entryDy=0;" edge="1" parent="1" source="9uPaZ5e8Ui4jW4CoOzcB-242" target="9uPaZ5e8Ui4jW4CoOzcB-311">
          <mxGeometry width="50" height="50" relative="1" as="geometry">
            <mxPoint x="335.8667270918895" y="569.3116617029201" as="sourcePoint" />
            <mxPoint x="379.9990909090858" y="620.223458167034" as="targetPoint" />
          </mxGeometry>
        </mxCell>
        <mxCell id="9uPaZ5e8Ui4jW4CoOzcB-327" value="" style="endArrow=none;html=1;rounded=0;fontSize=20;exitX=0;exitY=0.5;exitDx=0;exitDy=0;entryX=0;entryY=0.5;entryDx=0;entryDy=0;" edge="1" parent="1" source="9uPaZ5e8Ui4jW4CoOzcB-243" target="9uPaZ5e8Ui4jW4CoOzcB-311">
          <mxGeometry width="50" height="50" relative="1" as="geometry">
            <mxPoint x="335.8667270918895" y="600.0996002129714" as="sourcePoint" />
            <mxPoint x="379.9990909090858" y="620.223458167034" as="targetPoint" />
          </mxGeometry>
        </mxCell>
        <mxCell id="9uPaZ5e8Ui4jW4CoOzcB-328" value="" style="endArrow=none;html=1;rounded=0;fontSize=20;exitX=0;exitY=0.5;exitDx=0;exitDy=0;entryX=0;entryY=0.5;entryDx=0;entryDy=0;" edge="1" parent="1" source="9uPaZ5e8Ui4jW4CoOzcB-240" target="9uPaZ5e8Ui4jW4CoOzcB-311">
          <mxGeometry width="50" height="50" relative="1" as="geometry">
            <mxPoint x="335.8667270918895" y="630.8875387230225" as="sourcePoint" />
            <mxPoint x="379.9990909090858" y="620.223458167034" as="targetPoint" />
          </mxGeometry>
        </mxCell>
        <mxCell id="9uPaZ5e8Ui4jW4CoOzcB-329" value="" style="endArrow=none;html=1;rounded=0;fontSize=20;exitX=1;exitY=0.5;exitDx=0;exitDy=0;entryX=0;entryY=0.5;entryDx=0;entryDy=0;" edge="1" parent="1" source="9uPaZ5e8Ui4jW4CoOzcB-313" target="9uPaZ5e8Ui4jW4CoOzcB-309">
          <mxGeometry width="50" height="50" relative="1" as="geometry">
            <mxPoint x="390" y="410" as="sourcePoint" />
            <mxPoint x="440" y="360" as="targetPoint" />
          </mxGeometry>
        </mxCell>
        <mxCell id="9uPaZ5e8Ui4jW4CoOzcB-330" value="" style="endArrow=none;html=1;rounded=0;fontSize=20;exitX=1;exitY=0.5;exitDx=0;exitDy=0;entryX=0;entryY=0.5;entryDx=0;entryDy=0;" edge="1" parent="1" source="9uPaZ5e8Ui4jW4CoOzcB-312" target="9uPaZ5e8Ui4jW4CoOzcB-309">
          <mxGeometry width="50" height="50" relative="1" as="geometry">
            <mxPoint x="401.5761452013712" y="131.22345816703398" as="sourcePoint" />
            <mxPoint x="510" y="410" as="targetPoint" />
          </mxGeometry>
        </mxCell>
        <mxCell id="9uPaZ5e8Ui4jW4CoOzcB-331" value="" style="endArrow=none;html=1;rounded=0;fontSize=20;exitX=1;exitY=0.5;exitDx=0;exitDy=0;entryX=0;entryY=0.5;entryDx=0;entryDy=0;" edge="1" parent="1" source="9uPaZ5e8Ui4jW4CoOzcB-311" target="9uPaZ5e8Ui4jW4CoOzcB-309">
          <mxGeometry width="50" height="50" relative="1" as="geometry">
            <mxPoint x="411.5761452013712" y="141.22345816703398" as="sourcePoint" />
            <mxPoint x="520" y="420" as="targetPoint" />
          </mxGeometry>
        </mxCell>
        <mxCell id="9uPaZ5e8Ui4jW4CoOzcB-332" value="BI-LSTM" style="ellipse;whiteSpace=wrap;html=1;aspect=fixed;fontSize=20;strokeColor=#000000;strokeWidth=1;fillColor=none;" vertex="1" parent="1">
          <mxGeometry x="179.5" y="760.79" width="80" height="80" as="geometry" />
        </mxCell>
        <mxCell id="9uPaZ5e8Ui4jW4CoOzcB-334" value="xt" style="ellipse;whiteSpace=wrap;html=1;aspect=fixed;" vertex="1" parent="1">
          <mxGeometry x="89.99909090909091" y="790.0049310208908" width="21.57705429228608" height="21.57705429228608" as="geometry" />
        </mxCell>
        <mxCell id="9uPaZ5e8Ui4jW4CoOzcB-335" value="" style="endArrow=none;html=1;rounded=0;fontSize=20;exitX=1;exitY=0.5;exitDx=0;exitDy=0;entryX=0;entryY=0.5;entryDx=0;entryDy=0;" edge="1" parent="1" source="9uPaZ5e8Ui4jW4CoOzcB-334" target="9uPaZ5e8Ui4jW4CoOzcB-332">
          <mxGeometry width="50" height="50" relative="1" as="geometry">
            <mxPoint x="350" y="730" as="sourcePoint" />
            <mxPoint x="400" y="680" as="targetPoint" />
          </mxGeometry>
        </mxCell>
        <mxCell id="9uPaZ5e8Ui4jW4CoOzcB-336" value="&lt;br&gt;" style="ellipse;whiteSpace=wrap;html=1;aspect=fixed;" vertex="1" parent="1">
          <mxGeometry x="369.9990909090909" y="790.0049310208908" width="21.57705429228608" height="21.57705429228608" as="geometry" />
        </mxCell>
        <mxCell id="9uPaZ5e8Ui4jW4CoOzcB-337" value="" style="endArrow=none;html=1;rounded=0;fontSize=20;exitX=1;exitY=0.5;exitDx=0;exitDy=0;entryX=0;entryY=0.5;entryDx=0;entryDy=0;" edge="1" parent="1" source="9uPaZ5e8Ui4jW4CoOzcB-332" target="9uPaZ5e8Ui4jW4CoOzcB-336">
          <mxGeometry width="50" height="50" relative="1" as="geometry">
            <mxPoint x="580" y="710" as="sourcePoint" />
            <mxPoint x="630" y="660" as="targetPoint" />
          </mxGeometry>
        </mxCell>
        <mxCell id="9uPaZ5e8Ui4jW4CoOzcB-339" value="" style="endArrow=none;html=1;rounded=0;fontSize=20;exitX=1;exitY=0.5;exitDx=0;exitDy=0;entryX=0;entryY=0.5;entryDx=0;entryDy=0;" edge="1" parent="1" source="9uPaZ5e8Ui4jW4CoOzcB-336" target="9uPaZ5e8Ui4jW4CoOzcB-309">
          <mxGeometry width="50" height="50" relative="1" as="geometry">
            <mxPoint x="580" y="710" as="sourcePoint" />
            <mxPoint x="630" y="660" as="targetPoint" />
          </mxGeometry>
        </mxCell>
        <mxCell id="9uPaZ5e8Ui4jW4CoOzcB-341" value="" style="endArrow=classic;html=1;rounded=0;fontSize=20;exitX=1;exitY=0.5;exitDx=0;exitDy=0;" edge="1" parent="1">
          <mxGeometry width="50" height="50" relative="1" as="geometry">
            <mxPoint x="580" y="399" as="sourcePoint" />
            <mxPoint x="660" y="400" as="targetPoint" />
          </mxGeometry>
        </mxCell>
      </root>
    </mxGraphModel>
  </diagram>
</mxfile>
